<svg width="302" height="158" viewBox="0 0 302 158" fill="none" xmlns="http://www.w3.org/2000/svg">
<path d="M13.5 150.999C13.5 154.588 10.5899 157.497 7 157.497C3.41006 157.497 0.5 154.588 0.5 150.999C0.5 147.41 3.41006 144.5 7 144.5C10.5899 144.5 13.5 147.41 13.5 150.999Z" stroke="black"/>
<path d="M37.5 150.999C37.5 154.588 34.5899 157.497 31 157.497C27.4101 157.497 24.5 154.588 24.5 150.999C24.5 147.41 27.4101 144.5 31 144.5C34.5899 144.5 37.5 147.41 37.5 150.999Z" stroke="black"/>
<path d="M61.5 150.999C61.5 154.588 58.5899 157.497 55 157.497C51.4101 157.497 48.5 154.588 48.5 150.999C48.5 147.41 51.4101 144.5 55 144.5C58.5899 144.5 61.5 147.41 61.5 150.999Z" stroke="black"/>
<path d="M85.5 150.999C85.5 154.588 82.5899 157.497 79 157.497C75.4101 157.497 72.5 154.588 72.5 150.999C72.5 147.41 75.4101 144.5 79 144.5C82.5899 144.5 85.5 147.41 85.5 150.999Z" stroke="black"/>
<path d="M109.5 150.999C109.5 154.588 106.59 157.497 103 157.497C99.4101 157.497 96.5 154.588 96.5 150.999C96.5 147.41 99.4101 144.5 103 144.5C106.59 144.5 109.5 147.41 109.5 150.999Z" stroke="black"/>
<path d="M133.5 150.999C133.5 154.588 130.59 157.497 127 157.497C123.41 157.497 120.5 154.588 120.5 150.999C120.5 147.41 123.41 144.5 127 144.5C130.59 144.5 133.5 147.41 133.5 150.999Z" stroke="black"/>
<path d="M157.5 150.999C157.5 154.588 154.59 157.497 151 157.497C147.41 157.497 144.5 154.588 144.5 150.999C144.5 147.41 147.41 144.5 151 144.5C154.59 144.5 157.5 147.41 157.5 150.999Z" fill="#C091BE" stroke="black"/>
<path d="M181.5 150.999C181.5 154.588 178.59 157.497 175 157.497C171.41 157.497 168.5 154.588 168.5 150.999C168.5 147.41 171.41 144.5 175 144.5C178.59 144.5 181.5 147.41 181.5 150.999Z" stroke="black"/>
<path d="M205.5 150.999C205.5 154.588 202.59 157.497 199 157.497C195.41 157.497 192.5 154.588 192.5 150.999C192.5 147.41 195.41 144.5 199 144.5C202.59 144.5 205.5 147.41 205.5 150.999Z" stroke="black"/>
<path d="M229.5 150.999C229.5 154.588 226.59 157.497 223 157.497C219.41 157.497 216.5 154.588 216.5 150.999C216.5 147.41 219.41 144.5 223 144.5C226.59 144.5 229.5 147.41 229.5 150.999Z" stroke="black"/>
<path d="M253.5 150.999C253.5 154.588 250.59 157.497 247 157.497C243.41 157.497 240.5 154.588 240.5 150.999C240.5 147.41 243.41 144.5 247 144.5C250.59 144.5 253.5 147.41 253.5 150.999Z" stroke="black"/>
<path d="M277.5 150.999C277.5 154.588 274.59 157.497 271 157.497C267.41 157.497 264.5 154.588 264.5 150.999C264.5 147.41 267.41 144.5 271 144.5C274.59 144.5 277.5 147.41 277.5 150.999Z" stroke="black"/>
<path d="M301.5 150.999C301.5 154.588 298.59 157.497 295 157.497C291.41 157.497 288.5 154.588 288.5 150.999C288.5 147.41 291.41 144.5 295 144.5C298.59 144.5 301.5 147.41 301.5 150.999Z" stroke="black"/>
<path d="M13.5 126.999C13.5 130.588 10.5899 133.497 7 133.497C3.41006 133.497 0.5 130.588 0.5 126.999C0.5 123.41 3.41006 120.5 7 120.5C10.5899 120.5 13.5 123.41 13.5 126.999Z" stroke="black"/>
<path d="M37.5 126.999C37.5 130.588 34.5899 133.497 31 133.497C27.4101 133.497 24.5 130.588 24.5 126.999C24.5 123.41 27.4101 120.5 31 120.5C34.5899 120.5 37.5 123.41 37.5 126.999Z" stroke="black"/>
<path d="M61.5 126.999C61.5 130.588 58.5899 133.497 55 133.497C51.4101 133.497 48.5 130.588 48.5 126.999C48.5 123.41 51.4101 120.5 55 120.5C58.5899 120.5 61.5 123.41 61.5 126.999Z" stroke="black"/>
<path d="M85.5 126.999C85.5 130.588 82.5899 133.497 79 133.497C75.4101 133.497 72.5 130.588 72.5 126.999C72.5 123.41 75.4101 120.5 79 120.5C82.5899 120.5 85.5 123.41 85.5 126.999Z" stroke="black"/>
<path d="M109.5 126.999C109.5 130.588 106.59 133.497 103 133.497C99.4101 133.497 96.5 130.588 96.5 126.999C96.5 123.41 99.4101 120.5 103 120.5C106.59 120.5 109.5 123.41 109.5 126.999Z" stroke="black"/>
<path d="M133.5 126.999C133.5 130.588 130.59 133.497 127 133.497C123.41 133.497 120.5 130.588 120.5 126.999C120.5 123.41 123.41 120.5 127 120.5C130.59 120.5 133.5 123.41 133.5 126.999Z" fill="#C091BE" stroke="black"/>
<path d="M157.5 126.999C157.5 130.588 154.59 133.497 151 133.497C147.41 133.497 144.5 130.588 144.5 126.999C144.5 123.41 147.41 120.5 151 120.5C154.59 120.5 157.5 123.41 157.5 126.999Z" fill="#C091BE" stroke="black"/>
<path d="M181.5 126.999C181.5 130.588 178.59 133.497 175 133.497C171.41 133.497 168.5 130.588 168.5 126.999C168.5 123.41 171.41 120.5 175 120.5C178.59 120.5 181.5 123.41 181.5 126.999Z" fill="#C091BE" stroke="black"/>
<path d="M205.5 126.999C205.5 130.588 202.59 133.497 199 133.497C195.41 133.497 192.5 130.588 192.5 126.999C192.5 123.41 195.41 120.5 199 120.5C202.59 120.5 205.5 123.41 205.5 126.999Z" stroke="black"/>
<path d="M229.5 126.999C229.5 130.588 226.59 133.497 223 133.497C219.41 133.497 216.5 130.588 216.5 126.999C216.5 123.41 219.41 120.5 223 120.5C226.59 120.5 229.5 123.41 229.5 126.999Z" stroke="black"/>
<path d="M253.5 126.999C253.5 130.588 250.59 133.497 247 133.497C243.41 133.497 240.5 130.588 240.5 126.999C240.5 123.41 243.41 120.5 247 120.5C250.59 120.5 253.5 123.41 253.5 126.999Z" stroke="black"/>
<path d="M277.5 126.999C277.5 130.588 274.59 133.497 271 133.497C267.41 133.497 264.5 130.588 264.5 126.999C264.5 123.41 267.41 120.5 271 120.5C274.59 120.5 277.5 123.41 277.5 126.999Z" stroke="black"/>
<path d="M301.5 126.999C301.5 130.588 298.59 133.497 295 133.497C291.41 133.497 288.5 130.588 288.5 126.999C288.5 123.41 291.41 120.5 295 120.5C298.59 120.5 301.5 123.41 301.5 126.999Z" stroke="black"/>
<path d="M13.5 102.999C13.5 106.588 10.5899 109.497 7 109.497C3.41006 109.497 0.5 106.588 0.5 102.999C0.5 99.4096 3.41006 96.5 7 96.5C10.5899 96.5 13.5 99.4096 13.5 102.999Z" stroke="black"/>
<path d="M37.5 102.999C37.5 106.588 34.5899 109.497 31 109.497C27.4101 109.497 24.5 106.588 24.5 102.999C24.5 99.4096 27.4101 96.5 31 96.5C34.5899 96.5 37.5 99.4096 37.5 102.999Z" stroke="black"/>
<path d="M61.5 102.999C61.5 106.588 58.5899 109.497 55 109.497C51.4101 109.497 48.5 106.588 48.5 102.999C48.5 99.4096 51.4101 96.5 55 96.5C58.5899 96.5 61.5 99.4096 61.5 102.999Z" stroke="black"/>
<path d="M85.5 102.999C85.5 106.588 82.5899 109.497 79 109.497C75.4101 109.497 72.5 106.588 72.5 102.999C72.5 99.4096 75.4101 96.5 79 96.5C82.5899 96.5 85.5 99.4096 85.5 102.999Z" stroke="black"/>
<path d="M109.5 102.999C109.5 106.588 106.59 109.497 103 109.497C99.4101 109.497 96.5 106.588 96.5 102.999C96.5 99.4096 99.4101 96.5 103 96.5C106.59 96.5 109.5 99.4096 109.5 102.999Z" stroke="black"/>
<path d="M133.5 102.999C133.5 106.588 130.59 109.497 127 109.497C123.41 109.497 120.5 106.588 120.5 102.999C120.5 99.4096 123.41 96.5 127 96.5C130.59 96.5 133.5 99.4096 133.5 102.999Z" fill="#C091BE" stroke="black"/>
<path d="M157.5 102.999C157.5 106.588 154.59 109.497 151 109.497C147.41 109.497 144.5 106.588 144.5 102.999C144.5 99.4096 147.41 96.5 151 96.5C154.59 96.5 157.5 99.4096 157.5 102.999Z" fill="#C091BE" stroke="black"/>
<path d="M181.5 102.999C181.5 106.588 178.59 109.497 175 109.497C171.41 109.497 168.5 106.588 168.5 102.999C168.5 99.4096 171.41 96.5 175 96.5C178.59 96.5 181.5 99.4096 181.5 102.999Z" fill="#C091BE" stroke="black"/>
<path d="M205.5 102.999C205.5 106.588 202.59 109.497 199 109.497C195.41 109.497 192.5 106.588 192.5 102.999C192.5 99.4096 195.41 96.5 199 96.5C202.59 96.5 205.5 99.4096 205.5 102.999Z" stroke="black"/>
<path d="M229.5 102.999C229.5 106.588 226.59 109.497 223 109.497C219.41 109.497 216.5 106.588 216.5 102.999C216.5 99.4096 219.41 96.5 223 96.5C226.59 96.5 229.5 99.4096 229.5 102.999Z" stroke="black"/>
<path d="M253.5 102.999C253.5 106.588 250.59 109.497 247 109.497C243.41 109.497 240.5 106.588 240.5 102.999C240.5 99.4096 243.41 96.5 247 96.5C250.59 96.5 253.5 99.4096 253.5 102.999Z" stroke="black"/>
<path d="M277.5 102.999C277.5 106.588 274.59 109.497 271 109.497C267.41 109.497 264.5 106.588 264.5 102.999C264.5 99.4096 267.41 96.5 271 96.5C274.59 96.5 277.5 99.4096 277.5 102.999Z" stroke="black"/>
<path d="M301.5 102.999C301.5 106.588 298.59 109.497 295 109.497C291.41 109.497 288.5 106.588 288.5 102.999C288.5 99.4096 291.41 96.5 295 96.5C298.59 96.5 301.5 99.4096 301.5 102.999Z" stroke="black"/>
<path d="M13.5 78.9986C13.5 82.5876 10.5899 85.4973 7 85.4973C3.41006 85.4973 0.5 82.5876 0.5 78.9986C0.5 75.4096 3.41006 72.5 7 72.5C10.5899 72.5 13.5 75.4096 13.5 78.9986Z" stroke="black"/>
<path d="M37.5 78.9986C37.5 82.5876 34.5899 85.4973 31 85.4973C27.4101 85.4973 24.5 82.5876 24.5 78.9986C24.5 75.4096 27.4101 72.5 31 72.5C34.5899 72.5 37.5 75.4096 37.5 78.9986Z" stroke="black"/>
<path d="M61.5 78.9986C61.5 82.5876 58.5899 85.4973 55 85.4973C51.4101 85.4973 48.5 82.5876 48.5 78.9986C48.5 75.4096 51.4101 72.5 55 72.5C58.5899 72.5 61.5 75.4096 61.5 78.9986Z" stroke="black"/>
<path d="M85.5 78.9986C85.5 82.5876 82.5899 85.4973 79 85.4973C75.4101 85.4973 72.5 82.5876 72.5 78.9986C72.5 75.4096 75.4101 72.5 79 72.5C82.5899 72.5 85.5 75.4096 85.5 78.9986Z" stroke="black"/>
<path d="M109.5 78.9986C109.5 82.5876 106.59 85.4973 103 85.4973C99.4101 85.4973 96.5 82.5876 96.5 78.9986C96.5 75.4096 99.4101 72.5 103 72.5C106.59 72.5 109.5 75.4096 109.5 78.9986Z" stroke="black"/>
<path d="M133.5 78.9986C133.5 82.5876 130.59 85.4973 127 85.4973C123.41 85.4973 120.5 82.5876 120.5 78.9986C120.5 75.4096 123.41 72.5 127 72.5C130.59 72.5 133.5 75.4096 133.5 78.9986Z" fill="#C091BE" stroke="black"/>
<path d="M157.5 78.9986C157.5 82.5876 154.59 85.4973 151 85.4973C147.41 85.4973 144.5 82.5876 144.5 78.9986C144.5 75.4096 147.41 72.5 151 72.5C154.59 72.5 157.5 75.4096 157.5 78.9986Z" fill="#C091BE" stroke="black"/>
<path d="M181.5 78.9986C181.5 82.5876 178.59 85.4973 175 85.4973C171.41 85.4973 168.5 82.5876 168.5 78.9986C168.5 75.4096 171.41 72.5 175 72.5C178.59 72.5 181.5 75.4096 181.5 78.9986Z" fill="#C091BE" stroke="black"/>
<path d="M205.5 78.9986C205.5 82.5876 202.59 85.4973 199 85.4973C195.41 85.4973 192.5 82.5876 192.5 78.9986C192.5 75.4096 195.41 72.5 199 72.5C202.59 72.5 205.5 75.4096 205.5 78.9986Z" stroke="black"/>
<path d="M229.5 78.9986C229.5 82.5876 226.59 85.4973 223 85.4973C219.41 85.4973 216.5 82.5876 216.5 78.9986C216.5 75.4096 219.41 72.5 223 72.5C226.59 72.5 229.5 75.4096 229.5 78.9986Z" stroke="black"/>
<path d="M253.5 78.9986C253.5 82.5876 250.59 85.4973 247 85.4973C243.41 85.4973 240.5 82.5876 240.5 78.9986C240.5 75.4096 243.41 72.5 247 72.5C250.59 72.5 253.5 75.4096 253.5 78.9986Z" stroke="black"/>
<path d="M277.5 78.9986C277.5 82.5876 274.59 85.4973 271 85.4973C267.41 85.4973 264.5 82.5876 264.5 78.9986C264.5 75.4096 267.41 72.5 271 72.5C274.59 72.5 277.5 75.4096 277.5 78.9986Z" stroke="black"/>
<path d="M301.5 78.9986C301.5 82.5876 298.59 85.4973 295 85.4973C291.41 85.4973 288.5 82.5876 288.5 78.9986C288.5 75.4096 291.41 72.5 295 72.5C298.59 72.5 301.5 75.4096 301.5 78.9986Z" stroke="black"/>
<path d="M13.5 54.9986C13.5 58.5876 10.5899 61.4973 7 61.4973C3.41006 61.4973 0.5 58.5876 0.5 54.9986C0.5 51.4096 3.41006 48.5 7 48.5C10.5899 48.5 13.5 51.4096 13.5 54.9986Z" stroke="black"/>
<path d="M37.5 54.9986C37.5 58.5876 34.5899 61.4973 31 61.4973C27.4101 61.4973 24.5 58.5876 24.5 54.9986C24.5 51.4096 27.4101 48.5 31 48.5C34.5899 48.5 37.5 51.4096 37.5 54.9986Z" stroke="black"/>
<path d="M61.5 54.9986C61.5 58.5876 58.5899 61.4973 55 61.4973C51.4101 61.4973 48.5 58.5876 48.5 54.9986C48.5 51.4096 51.4101 48.5 55 48.5C58.5899 48.5 61.5 51.4096 61.5 54.9986Z" stroke="black"/>
<path d="M85.5 54.9986C85.5 58.5876 82.5899 61.4973 79 61.4973C75.4101 61.4973 72.5 58.5876 72.5 54.9986C72.5 51.4096 75.4101 48.5 79 48.5C82.5899 48.5 85.5 51.4096 85.5 54.9986Z" stroke="black"/>
<path d="M109.5 54.9986C109.5 58.5876 106.59 61.4973 103 61.4973C99.4101 61.4973 96.5 58.5876 96.5 54.9986C96.5 51.4096 99.4101 48.5 103 48.5C106.59 48.5 109.5 51.4096 109.5 54.9986Z" stroke="black"/>
<path d="M133.5 54.9986C133.5 58.5876 130.59 61.4973 127 61.4973C123.41 61.4973 120.5 58.5876 120.5 54.9986C120.5 51.4096 123.41 48.5 127 48.5C130.59 48.5 133.5 51.4096 133.5 54.9986Z" stroke="black"/>
<path d="M157.5 54.9986C157.5 58.5876 154.59 61.4973 151 61.4973C147.41 61.4973 144.5 58.5876 144.5 54.9986C144.5 51.4096 147.41 48.5 151 48.5C154.59 48.5 157.5 51.4096 157.5 54.9986Z" stroke="black"/>
<path d="M181.5 54.9986C181.5 58.5876 178.59 61.4973 175 61.4973C171.41 61.4973 168.5 58.5876 168.5 54.9986C168.5 51.4096 171.41 48.5 175 48.5C178.59 48.5 181.5 51.4096 181.5 54.9986Z" stroke="black"/>
<path d="M205.5 54.9986C205.5 58.5876 202.59 61.4973 199 61.4973C195.41 61.4973 192.5 58.5876 192.5 54.9986C192.5 51.4096 195.41 48.5 199 48.5C202.59 48.5 205.5 51.4096 205.5 54.9986Z" stroke="black"/>
<path d="M229.5 54.9986C229.5 58.5876 226.59 61.4973 223 61.4973C219.41 61.4973 216.5 58.5876 216.5 54.9986C216.5 51.4096 219.41 48.5 223 48.5C226.59 48.5 229.5 51.4096 229.5 54.9986Z" stroke="black"/>
<path d="M253.5 54.9986C253.5 58.5876 250.59 61.4973 247 61.4973C243.41 61.4973 240.5 58.5876 240.5 54.9986C240.5 51.4096 243.41 48.5 247 48.5C250.59 48.5 253.5 51.4096 253.5 54.9986Z" stroke="black"/>
<path d="M277.5 54.9986C277.5 58.5876 274.59 61.4973 271 61.4973C267.41 61.4973 264.5 58.5876 264.5 54.9986C264.5 51.4096 267.41 48.5 271 48.5C274.59 48.5 277.5 51.4096 277.5 54.9986Z" stroke="black"/>
<path d="M301.5 54.9986C301.5 58.5876 298.59 61.4973 295 61.4973C291.41 61.4973 288.5 58.5876 288.5 54.9986C288.5 51.4096 291.41 48.5 295 48.5C298.59 48.5 301.5 51.4096 301.5 54.9986Z" stroke="black"/>
<path d="M13.5 30.9986C13.5 34.5876 10.5899 37.4973 7 37.4973C3.41006 37.4973 0.5 34.5876 0.5 30.9986C0.5 27.4096 3.41006 24.5 7 24.5C10.5899 24.5 13.5 27.4096 13.5 30.9986Z" stroke="black"/>
<path d="M37.5 30.9986C37.5 34.5876 34.5899 37.4973 31 37.4973C27.4101 37.4973 24.5 34.5876 24.5 30.9986C24.5 27.4096 27.4101 24.5 31 24.5C34.5899 24.5 37.5 27.4096 37.5 30.9986Z" stroke="black"/>
<path d="M61.5 30.9986C61.5 34.5876 58.5899 37.4973 55 37.4973C51.4101 37.4973 48.5 34.5876 48.5 30.9986C48.5 27.4096 51.4101 24.5 55 24.5C58.5899 24.5 61.5 27.4096 61.5 30.9986Z" stroke="black"/>
<path d="M85.5 30.9986C85.5 34.5876 82.5899 37.4973 79 37.4973C75.4101 37.4973 72.5 34.5876 72.5 30.9986C72.5 27.4096 75.4101 24.5 79 24.5C82.5899 24.5 85.5 27.4096 85.5 30.9986Z" fill="#C091BE" stroke="black"/>
<path d="M109.5 30.9986C109.5 34.5876 106.59 37.4973 103 37.4973C99.4101 37.4973 96.5 34.5876 96.5 30.9986C96.5 27.4096 99.4101 24.5 103 24.5C106.59 24.5 109.5 27.4096 109.5 30.9986Z" fill="#C091BE" stroke="black"/>
<path d="M133.5 30.9986C133.5 34.5876 130.59 37.4973 127 37.4973C123.41 37.4973 120.5 34.5876 120.5 30.9986C120.5 27.4096 123.41 24.5 127 24.5C130.59 24.5 133.5 27.4096 133.5 30.9986Z" fill="#C091BE" stroke="black"/>
<path d="M157.5 30.9986C157.5 34.5876 154.59 37.4973 151 37.4973C147.41 37.4973 144.5 34.5876 144.5 30.9986C144.5 27.4096 147.41 24.5 151 24.5C154.59 24.5 157.5 27.4096 157.5 30.9986Z" fill="#C091BE" stroke="black"/>
<path d="M181.5 30.9986C181.5 34.5876 178.59 37.4973 175 37.4973C171.41 37.4973 168.5 34.5876 168.5 30.9986C168.5 27.4096 171.41 24.5 175 24.5C178.59 24.5 181.5 27.4096 181.5 30.9986Z" fill="#C091BE" stroke="black"/>
<path d="M205.5 30.9986C205.5 34.5876 202.59 37.4973 199 37.4973C195.41 37.4973 192.5 34.5876 192.5 30.9986C192.5 27.4096 195.41 24.5 199 24.5C202.59 24.5 205.5 27.4096 205.5 30.9986Z" fill="#C091BE" stroke="black"/>
<path d="M229.5 30.9986C229.5 34.5876 226.59 37.4973 223 37.4973C219.41 37.4973 216.5 34.5876 216.5 30.9986C216.5 27.4096 219.41 24.5 223 24.5C226.59 24.5 229.5 27.4096 229.5 30.9986Z" fill="#C091BE" stroke="black"/>
<path d="M253.5 30.9986C253.5 34.5876 250.59 37.4973 247 37.4973C243.41 37.4973 240.5 34.5876 240.5 30.9986C240.5 27.4096 243.41 24.5 247 24.5C250.59 24.5 253.5 27.4096 253.5 30.9986Z" stroke="black"/>
<path d="M277.5 30.9986C277.5 34.5876 274.59 37.4973 271 37.4973C267.41 37.4973 264.5 34.5876 264.5 30.9986C264.5 27.4096 267.41 24.5 271 24.5C274.59 24.5 277.5 27.4096 277.5 30.9986Z" stroke="black"/>
<path d="M301.5 30.9986C301.5 34.5876 298.59 37.4973 295 37.4973C291.41 37.4973 288.5 34.5876 288.5 30.9986C288.5 27.4096 291.41 24.5 295 24.5C298.59 24.5 301.5 27.4096 301.5 30.9986Z" stroke="black"/>
<path d="M13.5 6.99863C13.5 10.5876 10.5899 13.4973 7 13.4973C3.41006 13.4973 0.5 10.5876 0.5 6.99863C0.5 3.40963 3.41006 0.5 7 0.5C10.5899 0.5 13.5 3.40963 13.5 6.99863Z" stroke="black"/>
<path d="M37.5 6.99863C37.5 10.5876 34.5899 13.4973 31 13.4973C27.4101 13.4973 24.5 10.5876 24.5 6.99863C24.5 3.40963 27.4101 0.5 31 0.5C34.5899 0.5 37.5 3.40963 37.5 6.99863Z" stroke="black"/>
<path d="M61.5 6.99863C61.5 10.5876 58.5899 13.4973 55 13.4973C51.4101 13.4973 48.5 10.5876 48.5 6.99863C48.5 3.40963 51.4101 0.5 55 0.5C58.5899 0.5 61.5 3.40963 61.5 6.99863Z" stroke="black"/>
<path d="M85.5 6.99863C85.5 10.5876 82.5899 13.4973 79 13.4973C75.4101 13.4973 72.5 10.5876 72.5 6.99863C72.5 3.40963 75.4101 0.5 79 0.5C82.5899 0.5 85.5 3.40963 85.5 6.99863Z" stroke="black"/>
<path d="M109.5 6.99863C109.5 10.5876 106.59 13.4973 103 13.4973C99.4101 13.4973 96.5 10.5876 96.5 6.99863C96.5 3.40963 99.4101 0.5 103 0.5C106.59 0.5 109.5 3.40963 109.5 6.99863Z" stroke="black"/>
<path d="M133.5 6.99863C133.5 10.5876 130.59 13.4973 127 13.4973C123.41 13.4973 120.5 10.5876 120.5 6.99863C120.5 3.40963 123.41 0.5 127 0.5C130.59 0.5 133.5 3.40963 133.5 6.99863Z" stroke="black"/>
<path d="M157.5 6.99863C157.5 10.5876 154.59 13.4973 151 13.4973C147.41 13.4973 144.5 10.5876 144.5 6.99863C144.5 3.40963 147.41 0.5 151 0.5C154.59 0.5 157.5 3.40963 157.5 6.99863Z" stroke="black"/>
<path d="M181.5 6.99863C181.5 10.5876 178.59 13.4973 175 13.4973C171.41 13.4973 168.5 10.5876 168.5 6.99863C168.5 3.40963 171.41 0.5 175 0.5C178.59 0.5 181.5 3.40963 181.5 6.99863Z" stroke="black"/>
<path d="M205.5 6.99863C205.5 10.5876 202.59 13.4973 199 13.4973C195.41 13.4973 192.5 10.5876 192.5 6.99863C192.5 3.40963 195.41 0.5 199 0.5C202.59 0.5 205.5 3.40963 205.5 6.99863Z" stroke="black"/>
<path d="M229.5 6.99863C229.5 10.5876 226.59 13.4973 223 13.4973C219.41 13.4973 216.5 10.5876 216.5 6.99863C216.5 3.40963 219.41 0.5 223 0.5C226.59 0.5 229.5 3.40963 229.5 6.99863Z" stroke="black"/>
<path d="M253.5 6.99863C253.5 10.5876 250.59 13.4973 247 13.4973C243.41 13.4973 240.5 10.5876 240.5 6.99863C240.5 3.40963 243.41 0.5 247 0.5C250.59 0.5 253.5 3.40963 253.5 6.99863Z" stroke="black"/>
<path d="M277.5 6.99863C277.5 10.5876 274.59 13.4973 271 13.4973C267.41 13.4973 264.5 10.5876 264.5 6.99863C264.5 3.40963 267.41 0.5 271 0.5C274.59 0.5 277.5 3.40963 277.5 6.99863Z" stroke="black"/>
<path d="M301.5 6.99863C301.5 10.5876 298.59 13.4973 295 13.4973C291.41 13.4973 288.5 10.5876 288.5 6.99863C288.5 3.40963 291.41 0.5 295 0.5C298.59 0.5 301.5 3.40963 301.5 6.99863Z" stroke="black"/>
</svg>
