<svg width="279" height="171" viewBox="0 0 279 171" fill="none" xmlns="http://www.w3.org/2000/svg">
<rect x="43" y="1" width="235" height="162" stroke="black" stroke-width="2"/>
<rect x="35" y="6" width="235" height="162" fill="white" stroke="black" stroke-width="2"/>
<rect x="1" y="8" width="235" height="162" fill="white" stroke="black" stroke-width="2"/>
<line x1="74.5" y1="26.5" x2="74.5" y2="159.5" stroke="black" stroke-linecap="round"/>
<line x1="217.5" y1="38.5" x2="19.5" y2="38.5" stroke="black" stroke-linecap="round"/>
<line x1="124.5" y1="26.5" x2="124.5" y2="159.5" stroke="black" stroke-linecap="round"/>
<line x1="174.5" y1="26.5" x2="174.5" y2="159.5" stroke="black" stroke-linecap="round"/>
<rect x="195.5" y="79.5" width="13" height="16" fill="#C091BE" stroke="black"/>
<rect x="153.5" y="73.5" width="13" height="16" fill="#C091BE" stroke="black"/>
<rect x="44.5" y="96.5" width="13" height="16" fill="#C091BE" stroke="black"/>
<rect x="182.5" y="50.5" width="13" height="16" fill="black" stroke="black"/>
<rect x="135.5" y="49.5" width="13" height="16" fill="black" stroke="black"/>
<rect x="85.5" y="64.5" width="13" height="16" fill="black" stroke="black"/>
<rect x="204.5" y="54.5" width="13" height="16" fill="#DEDFE1" stroke="black"/>
<rect x="131.5" y="79.5" width="13" height="16" fill="#DEDFE1" stroke="black"/>
<rect x="78.5" y="101.5" width="13" height="16" fill="#DEDFE1" stroke="black"/>
<rect x="52.5" y="56.5" width="13" height="16" fill="#DEDFE1" stroke="black"/>
<rect x="30.5" y="56.5" width="13" height="16" fill="#DEDFE1" stroke="black"/>
<line x1="34.5" y1="32.5" x2="55.5" y2="32.5" stroke="black" stroke-width="3" stroke-linecap="round"/>
<line x1="88.5" y1="32.5" x2="109.5" y2="32.5" stroke="black" stroke-width="3" stroke-linecap="round"/>
<line x1="138.5" y1="32.5" x2="159.5" y2="32.5" stroke="black" stroke-width="3" stroke-linecap="round"/>
<line x1="188.5" y1="32.5" x2="209.5" y2="32.5" stroke="black" stroke-width="3" stroke-linecap="round"/>
</svg>
