<svg width="235" height="186" viewBox="0 0 235 186" fill="none" xmlns="http://www.w3.org/2000/svg">
<path d="M186.067 53.7484C195.76 67.5362 196.7 84.5856 190.317 101.037C183.934 117.488 170.235 133.311 150.714 144.582C131.193 155.853 109.58 160.42 90.4303 158.711C71.2807 157.002 54.6273 149.025 44.9342 135.237C35.2412 121.449 34.3006 104.4 40.6834 87.9488C47.0663 71.4974 60.7659 55.6746 80.2867 44.4034C99.8076 33.1322 121.421 28.5658 140.571 30.2747C159.72 31.9836 176.373 39.9606 186.067 53.7484Z" stroke="black"/>
<rect x="125" y="133" width="30" height="30" fill="white" stroke="black" stroke-width="2"/>
<rect x="58" y="1" width="65" height="57" fill="white" stroke="black" stroke-width="2"/>
<rect x="148" y="39" width="86" height="53" fill="white" stroke="black" stroke-width="2"/>
<rect x="1" y="83" width="82" height="59" fill="white" stroke="black" stroke-width="2"/>
<path d="M72 49.5V58H111.5V51.5C111.5 47 110.5 44 107.5 41.5C104.5 39 95.5 38.1667 91 38C87.3333 38 79.2 38.7 76 41.5C72.8 44.3 72 48 72 49.5Z" fill="black" stroke="black" stroke-width="2"/>
<path d="M172 83.5V92H211.5V85.5C211.5 81 210.5 78 207.5 75.5C204.5 73 195.5 72.1667 191 72C187.333 72 179.2 73.2 176 76C172.8 78.8 172 82 172 83.5Z" fill="#C091BE" stroke="black" stroke-width="2"/>
<path d="M17 133.5V142H56.5V135.5C56.5 131 55.5 128 52.5 125.5C49.5 123 40.5 122.167 36 122C32.3333 122 24.2 123.2 21 126C17.8 128.8 17 132 17 133.5Z" stroke="black" stroke-width="2"/>
<path d="M146 140L152.5 137M129.5 144V151H134.5L142 156.5V139L134.5 144H129.5Z" stroke="black" stroke-width="2" stroke-linecap="round"/>
<path d="M146.5 146.5L152 146" stroke="black" stroke-width="2" stroke-linecap="round"/>
<path d="M146 153.5L151.5 155.5" stroke="black" stroke-width="2" stroke-linecap="round"/>
<circle cx="91.5" cy="27.5" r="9.5" fill="#C091BE" stroke="black" stroke-width="2"/>
<circle cx="191.5" cy="61.5" r="9.5" stroke="black" stroke-width="2"/>
<circle cx="36.5" cy="111.5" r="9.5" stroke="black" stroke-width="2"/>
<path d="M86 28.5C87.3333 29.6667 90.4 32 92 32C93.6 32 96.6667 29.6667 98 28.5" stroke="black" stroke-linecap="round"/>
<path d="M188 64.5C189.333 65.6667 190.4 66 192 66C193.6 66 195.167 65.1667 196.5 64" stroke="black" stroke-linecap="round"/>
<path d="M33 114.5C34.3333 115.667 35.4 116 37 116C38.6 116 40.1667 115.167 41.5 114" stroke="black" stroke-linecap="round"/>
<path d="M91 26.5L91.9504 26.8802C92.6518 27.1607 93.3991 26.5921 93.3157 25.8413L93 23" stroke="black"/>
<path d="M36 110.5L36.9504 110.88C37.6518 111.161 38.3991 110.592 38.3157 109.841L38 107" stroke="black"/>
<path d="M180.5 73C180.718 72.8759 180.924 72.7529 181.121 72.6316C183.697 71.0389 183.684 67.955 183.661 64.9261C183.656 64.1829 183.749 63.5026 184.001 63C185.001 61 191.001 59 194.501 59C198.001 59 203.501 70.5 209.001 68.5C214.501 66.5 214.501 60.5 214.501 58C214.501 55.5 203.001 50.5 199.001 49C195.001 47.5 196.001 43.5 193.501 42C191.001 40.5001 188.501 44 186.001 43.5C183.501 43 179.001 53 176.001 54.5C173.001 56 165 54 164 58C163 62 166 60.5 167 64C168 67.5 163.5 68.5 166.5 74C169.5 79.5 177 75 180.5 73Z" fill="black" stroke="black"/>
<path d="M25 111.774C25.8 111.774 27.6667 108.108 28.5 106.274C30 105.941 33.7 105.174 36.5 104.774C40 104.274 45 106.774 46 106.774C47 106.774 48 102.774 48 100.274C48 97.7744 45 92.2744 41 91.2744C37.8 90.4744 40.5 99 35.5 96.4993C32 94 32.5 92.2746 31.5 87.4997C31.0416 85.3111 28.453 83.9649 27 85.9993C22 92.9997 21.5 93.9993 21.5 96.4993C21.5 98.9993 22 102.499 22 104.499C22 106.499 24 111.774 25 111.774Z" fill="#C091BE" stroke="black" stroke-width="2"/>
</svg>
