<svg width="129" height="121" viewBox="0 0 129 121" fill="none" xmlns="http://www.w3.org/2000/svg">
<rect x="7" y="29.9911" width="113" height="64.9795" fill="white" stroke="black" stroke-width="2" stroke-dasharray="15 15"/>
<rect x="114" y="20.9939" width="14" height="13.9951" fill="white" stroke="black" stroke-width="2"/>
<rect x="114" y="86.9737" width="14" height="13.9951" fill="white" stroke="black" stroke-width="2"/>
<rect x="1" y="86.9737" width="14" height="13.9951" fill="white" stroke="black" stroke-width="2"/>
<rect x="1" y="20.9939" width="14" height="13.9951" fill="white" stroke="black" stroke-width="2"/>
<mask id="path-6-inside-1_813_245" fill="white">
<path d="M57.3978 54.0346C57.3978 41.3947 74.7793 41.1039 74.7794 54.0346C74.7794 66.9654 99.2133 107.476 99.2133 107.476C102.106 113.803 97.4809 121 90.5226 121H41.6546C34.6963 121 30.0712 113.803 32.9638 107.476C32.9638 107.476 57.3978 66.6746 57.3978 54.0346Z"/>
<path d="M74.7794 66.9654C74.7794 78.8092 57.3978 74.8289 57.3978 66.9654C57.3978 59.1018 32.9638 13.5237 32.9638 13.5237C30.0712 7.19708 34.6963 -6.08126e-07 41.6546 0L90.5226 4.27087e-06C97.4809 4.87899e-06 102.106 7.19708 99.2134 13.5237C99.2134 13.5237 74.7794 55.1215 74.7794 66.9654Z"/>
</mask>
<path d="M57.3978 54.0346C57.3978 41.3947 74.7793 41.1039 74.7794 54.0346C74.7794 66.9654 99.2133 107.476 99.2133 107.476C102.106 113.803 97.4809 121 90.5226 121H41.6546C34.6963 121 30.0712 113.803 32.9638 107.476C32.9638 107.476 57.3978 66.6746 57.3978 54.0346Z" fill="#C091BE"/>
<path d="M74.7794 66.9654C74.7794 78.8092 57.3978 74.8289 57.3978 66.9654C57.3978 59.1018 32.9638 13.5237 32.9638 13.5237C30.0712 7.19708 34.6963 -6.08126e-07 41.6546 0L90.5226 4.27087e-06C97.4809 4.87899e-06 102.106 7.19708 99.2134 13.5237C99.2134 13.5237 74.7794 55.1215 74.7794 66.9654Z" fill="#C091BE"/>
<path d="M57.3978 54.0346H59.3978H57.3978ZM99.2133 107.476L101.032 106.645L100.985 106.541L100.926 106.443L99.2133 107.476ZM32.9638 107.476L31.2479 106.449L31.191 106.544L31.1449 106.645L32.9638 107.476ZM74.7794 66.9654H76.7794H74.7794ZM57.3978 66.9654H55.3978H57.3978ZM32.9638 13.5237L31.1449 14.3553L31.1712 14.4129L31.2011 14.4687L32.9638 13.5237ZM90.5226 4.27087e-06V2V4.27087e-06ZM99.2134 13.5237L100.938 14.5367L100.99 14.4484L101.032 14.3553L99.2134 13.5237ZM59.3978 54.0346C59.3978 51.359 60.3043 49.5016 61.5161 48.3097C62.7502 47.0959 64.4146 46.4597 66.1053 46.4456C67.7947 46.4315 69.4446 47.0383 70.6651 48.2319C71.8645 49.4049 72.7794 51.2732 72.7794 54.0346H76.7794C76.7794 50.3308 75.5215 47.3864 73.4619 45.3721C71.4233 43.3785 68.7278 42.4235 66.0718 42.4457C63.4171 42.4679 60.7362 43.4663 58.7112 45.4579C56.664 47.4714 55.3978 50.3903 55.3978 54.0346H59.3978ZM72.7794 54.0346C72.7794 57.7053 74.4612 62.9953 76.7453 68.5954C79.0691 74.2929 82.1548 80.6303 85.222 86.5274C88.2925 92.4306 91.3607 97.9233 93.66 101.938C94.8101 103.947 95.7688 105.587 96.4407 106.726C96.7766 107.296 97.0409 107.74 97.2215 108.043C97.3119 108.194 97.3813 108.31 97.4283 108.389C97.4518 108.428 97.4697 108.458 97.4819 108.478C97.4879 108.488 97.4926 108.496 97.4957 108.501C97.4973 108.504 97.4985 108.506 97.4993 108.507C97.4998 108.508 97.5001 108.508 97.5003 108.509C97.5006 108.509 97.5007 108.509 99.2133 107.476C100.926 106.443 100.926 106.443 100.926 106.443C100.926 106.443 100.925 106.443 100.925 106.442C100.924 106.441 100.923 106.439 100.922 106.437C100.919 106.432 100.915 106.425 100.909 106.416C100.898 106.397 100.881 106.368 100.858 106.331C100.813 106.255 100.745 106.142 100.656 105.993C100.479 105.696 100.218 105.258 99.8862 104.694C99.2218 103.568 98.2717 101.942 97.1311 99.9505C94.849 95.9657 91.8087 90.5225 88.7707 84.6816C85.7294 78.8346 82.7066 72.6197 80.4491 67.0847C78.1518 61.4523 76.7794 56.8294 76.7794 54.0346H72.7794ZM97.3944 108.308C99.681 113.309 96.0253 119 90.5226 119V123C98.9364 123 104.531 114.297 101.032 106.645L97.3944 108.308ZM90.5226 119H41.6546V123H90.5226V119ZM41.6546 119C36.1518 119 32.4961 113.309 34.7827 108.308L31.1449 106.645C27.6463 114.297 33.2408 123 41.6546 123V119ZM32.9638 107.476C34.6797 108.504 34.6798 108.504 34.6801 108.503C34.6803 108.503 34.6806 108.502 34.681 108.502C34.6819 108.5 34.6831 108.498 34.6847 108.495C34.6878 108.49 34.6924 108.482 34.6985 108.472C34.7106 108.452 34.7285 108.422 34.752 108.383C34.799 108.304 34.8684 108.187 34.9587 108.035C35.1393 107.73 35.4035 107.283 35.7393 106.709C36.411 105.563 37.3696 103.913 38.5196 101.893C40.8186 97.8559 43.8863 92.3366 46.9563 86.4161C50.0231 80.5017 53.108 74.1565 55.4312 68.4743C57.7129 62.8937 59.3978 57.6361 59.3978 54.0346H55.3978C55.3978 56.7532 54.0285 61.3357 51.7287 66.9605C49.4706 72.4836 46.447 78.7087 43.4053 84.5748C40.3668 90.4347 37.326 95.9058 35.0436 99.9138C33.9029 101.917 32.9526 103.553 32.2881 104.687C31.9558 105.254 31.6951 105.696 31.5177 105.995C31.4291 106.145 31.3612 106.259 31.3158 106.335C31.2931 106.373 31.2759 106.402 31.2645 106.421C31.2589 106.431 31.2546 106.438 31.2518 106.442C31.2505 106.445 31.2494 106.446 31.2488 106.447C31.2485 106.448 31.2482 106.448 31.2481 106.449C31.248 106.449 31.2479 106.449 32.9638 107.476ZM72.7794 66.9654C72.7794 69.3874 71.9233 70.7066 70.8973 71.443C69.7876 72.2394 68.1589 72.5796 66.3161 72.3686C64.4848 72.159 62.6714 71.4254 61.3574 70.3821C60.0424 69.338 59.3978 68.1394 59.3978 66.9654H55.3978C55.3978 69.7231 56.9259 71.9709 58.87 73.5146C60.815 75.0591 63.347 76.0548 65.8611 76.3427C68.3636 76.6292 71.0804 76.2352 73.2296 74.6926C75.4627 73.0899 76.7794 70.4652 76.7794 66.9654H72.7794ZM59.3978 66.9654C59.3978 65.6212 58.9105 63.769 58.2447 61.7773C57.5527 59.7067 56.5753 57.2265 55.4201 54.514C53.1078 49.0846 50.0346 42.6115 46.9743 36.4106C43.9114 30.2044 40.8501 24.2476 38.5552 19.8439C37.4076 17.6415 36.451 15.8265 35.7812 14.5615C35.4462 13.929 35.1829 13.434 35.0031 13.0967C34.9133 12.9281 34.8443 12.7989 34.7977 12.7118C34.7744 12.6682 34.7567 12.6351 34.7447 12.6128C34.7388 12.6017 34.7343 12.5932 34.7312 12.5875C34.7297 12.5847 34.7285 12.5825 34.7277 12.5811C34.7273 12.5803 34.727 12.5798 34.7268 12.5794C34.7266 12.579 34.7265 12.5787 32.9638 13.5237C31.2011 14.4687 31.2012 14.4688 31.2013 14.4691C31.2015 14.4694 31.2018 14.4698 31.2021 14.4705C31.2028 14.4718 31.2039 14.4738 31.2053 14.4765C31.2082 14.4818 31.2125 14.4899 31.2183 14.5007C31.2299 14.5223 31.2472 14.5547 31.2701 14.5976C31.316 14.6834 31.3842 14.8111 31.4733 14.9782C31.6514 15.3125 31.9131 15.8043 32.2462 16.4335C32.9126 17.6918 33.865 19.4989 35.008 21.6924C37.2946 26.0803 40.3417 32.0095 43.3873 38.1808C46.4355 44.3573 49.4708 50.7532 51.7399 56.0813C52.8754 58.7475 53.8069 61.1182 54.4511 63.0453C55.1216 65.0513 55.3978 66.3436 55.3978 66.9654H59.3978ZM34.7827 12.6921C32.4961 7.69094 36.1518 2 41.6546 2V-2C33.2408 -2 27.6463 6.70321 31.1449 14.3553L34.7827 12.6921ZM41.6546 2L90.5226 2V-2L41.6546 -2V2ZM90.5226 2C96.0253 2 99.681 7.69095 97.3945 12.6921L101.032 14.3553C104.531 6.70321 98.9364 -1.99999 90.5226 -2V2ZM99.2134 13.5237C97.4888 12.5108 97.4887 12.511 97.4884 12.5114C97.4882 12.5118 97.4879 12.5124 97.4875 12.5131C97.4867 12.5145 97.4855 12.5165 97.4839 12.5192C97.4808 12.5245 97.4762 12.5323 97.4701 12.5426C97.4581 12.5633 97.4402 12.5938 97.4167 12.6339C97.3698 12.7141 97.3005 12.8329 97.2103 12.9879C97.0299 13.298 96.7658 13.7533 96.4302 14.3364C95.7588 15.5026 94.8006 17.1804 93.6511 19.2302C91.3529 23.3284 88.2864 28.9206 85.2177 34.8885C82.1522 40.8504 79.0692 47.217 76.7477 52.8572C75.5872 55.6767 74.6052 58.3429 73.9106 60.7041C73.2252 63.0335 72.7794 65.1969 72.7794 66.9654H76.7794C76.7794 65.7728 77.097 64.0454 77.7479 61.833C78.3895 59.6523 79.3164 57.1256 80.4466 54.3797C82.7065 48.8892 85.732 42.6357 88.775 36.7176C91.8148 30.8057 94.8568 25.2581 97.14 21.1867C98.2812 19.1516 99.2319 17.487 99.8968 16.3321C100.229 15.7546 100.49 15.3047 100.668 14.9996C100.756 14.8471 100.824 14.7308 100.87 14.6529C100.893 14.614 100.91 14.5846 100.921 14.5652C100.927 14.5554 100.931 14.5482 100.934 14.5434C100.935 14.541 100.936 14.5393 100.937 14.5381C100.937 14.5376 100.938 14.5372 100.938 14.5369C100.938 14.5367 100.938 14.5367 99.2134 13.5237Z" fill="black" mask="url(#path-6-inside-1_813_245)"/>
<path d="M59.3263 55.5343C59.3263 45.8262 73.5003 46.5512 73.5003 56.4827C73.5003 66.4142 90.5 96.5804 90.5 96.5804C92.7217 101.44 90.1123 106.967 84.7679 106.967H47.2347C41.8904 106.967 38.7783 101.829 41 96.9703C41 96.9703 59.3263 65.2424 59.3263 55.5343Z" fill="#C091BE"/>
<path d="M72.6763 65.4658C72.3524 74.4489 59.9654 71.4498 59.3263 65.4658C58.6873 59.4818 39.501 21.4934 39.501 21.4934C37.2794 16.6342 41.8904 14.0328 47.2347 14.0328L84.7679 14.0328C90.1123 14.0328 94.7219 16.6342 92.5003 21.4934C92.5003 21.4934 73.0003 56.4827 72.6763 65.4658Z" fill="#C091BE"/>
<path d="M47 9.99705C42.2 7.19791 37.6667 12.1631 36 14.9955L57 59.9816C59.3333 61.6478 64 67.0795 64 75.4769C64 85.9737 68.5 83.9743 68 77.9761C67.5 71.978 72.5 62.9807 74.5 59.4818C76.1 56.6826 89.5 30.324 96 17.4946C94.3333 15.9951 90.5 13.3959 88.5 14.9955C86 16.995 83 16.4949 79 17.4946C75 18.4943 76 12.4962 67.5 14.9955C59 17.4949 62 12.4962 57 14.9955C52 17.4949 53 13.496 47 9.99705Z" fill="black" stroke="black"/>
</svg>
