<svg width="79" height="79" viewBox="0 0 79 79" fill="none" xmlns="http://www.w3.org/2000/svg">
<path d="M39.3995 78.5H39.4364C60.9668 78.5 78.418 61.0464 78.418 39.52V39.5015C78.421 17.9597 60.9607 0.5 39.421 0.5C17.8784 0.5 0.417969 17.9597 0.417969 39.4985V39.5169C0.417969 61.0464 17.8722 78.5 39.3995 78.5Z" fill="black"/>
<path d="M41.6285 62.9002V40.5373H48.1987L49.1814 31.8204H41.6257V26.2551C41.6257 23.7333 42.2382 22.0128 45.4063 22.0128L49.4459 22.0096V14.215C48.7471 14.1101 46.3473 13.8716 43.5578 13.8716C37.7337 13.8716 33.7443 17.9327 33.7443 25.3933V31.8204H27.1602V40.5373H33.7498V62.9002H41.6285Z" fill="white"/>
</svg>
