<svg width="579" height="235" viewBox="0 0 579 235" fill="none" xmlns="http://www.w3.org/2000/svg">
<mask id="path-1-outside-1_7206_43" maskUnits="userSpaceOnUse" x="0.0703125" y="0.199951" width="579" height="235" fill="black">
<rect fill="white" x="0.0703125" y="0.199951" width="579" height="235"/>
<path d="M19.0703 66V24.87L33.3803 66H44.1803L58.1303 25.14V66H72.0803V2.99995H55.5203L38.7803 47.73L22.0403 2.99995H5.12031V66H19.0703Z"/>
<path d="M124.63 66V54.3H100.69V40.44H124.63V29.01H100.69V14.6999H124.63V2.99995H86.1098V66H124.63Z"/>
<path d="M151.87 66V25.23L173.74 66H188.68V2.99995H174.73V43.77L152.86 2.99995H137.92V66H151.87Z"/>
<path d="M228.837 66V40.9799V15.9599H246.207V2.99995H197.067V15.9599H214.347V66H228.837Z"/>
<path d="M306.096 58.08C312.216 51.69 315.276 43.77 315.276 34.5C315.276 25.23 312.216 17.31 306.096 10.83C299.977 4.43995 291.786 1.19995 281.616 1.19995C271.446 1.19995 263.256 4.43995 257.136 10.83C251.016 17.31 247.956 25.23 247.956 34.5C247.956 43.77 251.016 51.69 257.136 58.08C263.256 64.56 271.446 67.8 281.616 67.8C291.786 67.8 299.977 64.56 306.096 58.08ZM281.616 54.75C275.766 54.75 271.266 52.77 268.026 48.9C264.697 45.03 263.076 40.26 263.166 34.5C263.076 28.7399 264.697 23.88 268.026 20.01C271.266 16.14 275.766 14.2499 281.616 14.2499C287.376 14.2499 291.876 16.14 295.206 20.01C298.446 23.88 300.066 28.7399 300.066 34.5C300.066 40.26 298.446 45.03 295.206 48.9C291.876 52.77 287.376 54.75 281.616 54.75Z"/>
<path d="M374.927 25.77C374.927 19.1999 372.767 13.71 368.537 9.38995C364.307 5.15995 358.907 2.99995 352.337 2.99995H325.517V66H340.097V48.54H347.747L357.647 66H374.207L363.137 46.02C370.427 42.4199 374.927 34.86 374.927 25.77ZM350.087 14.88C355.937 14.88 360.167 19.38 360.167 25.77C360.167 32.16 355.937 36.66 350.087 36.66H340.097V14.88H350.087Z"/>
<path d="M25.8203 150.8C32.7503 150.8 38.4203 149 42.6503 145.49C46.8803 141.98 48.9503 137.21 48.9503 131.36C48.9503 122.81 44.7203 116.96 36.2603 113.63L25.8203 109.49C19.6103 106.97 17.1803 104.81 17.1803 101.3C17.1803 97.43 20.0603 95.09 24.7403 95.09C30.4103 95.09 33.4703 98.33 33.4703 104.18H48.0503C48.0503 98.15 45.9803 93.29 41.7503 89.6C37.5203 86 31.9403 84.2 25.0103 84.2C18.1703 84.2 12.7703 85.91 8.72031 89.24C4.67031 92.57 2.60031 97.0699 2.60031 102.65C2.60031 110.93 6.83031 116.69 15.3803 119.84L26.7203 124.25C32.4803 126.5 34.3703 128.48 34.3703 132.35C34.3703 136.76 31.3103 139.28 25.9103 139.28C19.5203 139.28 15.6503 135.23 15.6503 128.39H1.07031C1.07031 142.52 10.3403 150.8 25.8203 150.8Z"/>
<path d="M97.7352 149V137.3H73.7952V123.44H97.7352V112.01H73.7952V97.7H97.7352V85.9999H59.2152V149H97.7352Z"/>
<path d="M160.435 108.77C160.435 102.2 158.275 96.71 154.045 92.39C149.815 88.16 144.415 85.9999 137.845 85.9999H111.025V149H125.605V131.54H133.255L143.155 149H159.715L148.645 129.02C155.935 125.42 160.435 117.86 160.435 108.77ZM135.595 97.88C141.445 97.88 145.675 102.38 145.675 108.77C145.675 115.16 141.445 119.66 135.595 119.66H125.605V97.88H135.595Z"/>
<path d="M190.247 149L222.5 85.9999H206.84L184.757 131.54V85.9999H169.097V149H190.247Z"/>
<path d="M241.705 149V85.9999H227.125V149H241.705Z"/>
<path d="M285.882 150.8C294.972 150.8 302.442 148.55 308.202 144.05C313.872 139.64 317.202 133.61 318.012 126.14H302.532C300.822 133.34 294.882 137.75 285.972 137.75C274.182 137.75 267.252 130.01 267.252 117.5C267.252 104.99 274.182 97.2499 285.972 97.2499C294.882 97.2499 300.822 101.66 302.532 108.86H318.012C317.202 101.39 313.872 95.36 308.202 90.86C302.442 86.45 294.972 84.2 285.882 84.2C275.712 84.2 267.522 87.2599 261.312 93.4699C255.102 99.6799 252.042 107.69 252.042 117.5C252.042 127.31 255.102 135.23 261.312 141.44C267.522 147.65 275.712 150.8 285.882 150.8Z"/>
<path d="M366.54 149V137.3H342.6V123.44H366.54V112.01H342.6V97.7H366.54V85.9999H328.02V149H366.54Z"/>
<path d="M418.094 149V127.22H442.034V115.25H418.094V98.24H442.034V85.9999H403.514V149H418.094Z"/>
<path d="M508.72 141.08C514.84 134.69 517.9 126.77 517.9 117.5C517.9 108.23 514.84 100.31 508.72 93.8299C502.6 87.4399 494.41 84.2 484.24 84.2C474.07 84.2 465.88 87.4399 459.76 93.8299C453.64 100.31 450.58 108.23 450.58 117.5C450.58 126.77 453.64 134.69 459.76 141.08C465.88 147.56 474.07 150.8 484.24 150.8C494.41 150.8 502.6 147.56 508.72 141.08ZM484.24 137.75C478.39 137.75 473.89 135.77 470.65 131.9C467.32 128.03 465.7 123.26 465.79 117.5C465.7 111.74 467.32 106.88 470.65 103.01C473.89 99.14 478.39 97.2499 484.24 97.2499C490 97.2499 494.5 99.14 497.83 103.01C501.07 106.88 502.69 111.74 502.69 117.5C502.69 123.26 501.07 128.03 497.83 131.9C494.5 135.77 490 137.75 484.24 137.75Z"/>
<path d="M577.55 108.77C577.55 102.2 575.39 96.71 571.16 92.39C566.93 88.16 561.53 85.9999 554.96 85.9999H528.14V149H542.72V131.54H550.37L560.27 149H576.83L565.76 129.02C573.05 125.42 577.55 117.86 577.55 108.77ZM552.71 97.88C558.56 97.88 562.79 102.38 562.79 108.77C562.79 115.16 558.56 119.66 552.71 119.66H542.72V97.88H552.71Z"/>
<path d="M28.8803 232C38.6903 232 46.5203 228.94 52.3703 222.91C58.1303 216.88 61.0103 209.41 61.0103 200.5C61.0103 191.59 58.1303 184.12 52.2803 178.09C46.4303 172.06 38.6903 169 28.8803 169H5.12031V232H28.8803ZM19.7003 181.24H27.5303C33.3803 181.24 37.9703 183.13 41.2103 186.82C44.3603 190.6 45.9803 195.19 45.9803 200.5C45.9803 205.81 44.3603 210.4 41.2103 214.09C37.9703 217.87 33.3803 219.76 27.5303 219.76H19.7003V181.24Z"/>
<path d="M109.6 232V220.3H85.6605V206.44H109.6V195.01H85.6605V180.7H109.6V169H71.0805V232H109.6Z"/>
<path d="M142.272 233.8C149.202 233.8 154.872 232 159.102 228.49C163.332 224.98 165.402 220.21 165.402 214.36C165.402 205.81 161.172 199.96 152.712 196.63L142.272 192.49C136.062 189.97 133.632 187.81 133.632 184.3C133.632 180.43 136.512 178.09 141.192 178.09C146.862 178.09 149.922 181.33 149.922 187.18H164.502C164.502 181.15 162.432 176.29 158.202 172.6C153.972 169 148.392 167.2 141.462 167.2C134.622 167.2 129.222 168.91 125.172 172.24C121.122 175.57 119.052 180.07 119.052 185.65C119.052 193.93 123.282 199.69 131.832 202.84L143.172 207.25C148.932 209.5 150.822 211.48 150.822 215.35C150.822 219.76 147.762 222.28 142.362 222.28C135.972 222.28 132.102 218.23 132.102 211.39H117.522C117.522 225.52 126.792 233.8 142.272 233.8Z"/>
<path d="M190.247 232V169H175.667V232H190.247Z"/>
<path d="M239.463 198.88V209.86H250.713C248.553 217.33 243.063 221.11 234.243 221.11C228.663 221.11 224.163 219.13 220.833 215.26C217.413 211.39 215.703 206.53 215.793 200.5C215.703 187.99 222.453 179.44 234.783 179.44C242.253 179.44 247.383 183.13 248.553 188.53H264.483C263.943 182.32 260.973 177.28 255.483 173.23C249.993 169.18 243.063 167.2 234.693 167.2C224.163 167.2 215.793 170.44 209.763 176.83C203.643 183.22 200.583 191.23 200.583 200.77C200.493 210.4 203.553 218.23 209.763 224.44C215.883 230.65 223.893 233.8 233.883 233.8C251.163 233.8 262.503 225.07 265.743 209.86H271.683V198.88H239.463Z"/>
<path d="M294.906 232V191.23L316.776 232H331.716V169H317.766V209.77L295.896 169H280.956V232H294.906Z"/>
<path d="M384.294 232V220.3H360.354V206.44H384.294V195.01H360.354V180.7H384.294V169H345.774V232H384.294Z"/>
<path d="M446.994 191.77C446.994 185.2 444.834 179.71 440.604 175.39C436.374 171.16 430.974 169 424.404 169H397.584V232H412.164V214.54H419.814L429.714 232H446.274L435.204 212.02C442.494 208.42 446.994 200.86 446.994 191.77ZM422.154 180.88C428.004 180.88 432.234 185.38 432.234 191.77C432.234 198.16 428.004 202.66 422.154 202.66H412.164V180.88H422.154Z"/>
<path d="M478.004 233.8C484.934 233.8 490.603 232 494.833 228.49C499.064 224.98 501.134 220.21 501.134 214.36C501.134 205.81 496.904 199.96 488.444 196.63L478.004 192.49C471.794 189.97 469.363 187.81 469.363 184.3C469.363 180.43 472.244 178.09 476.924 178.09C482.594 178.09 485.654 181.33 485.654 187.18H500.234C500.234 181.15 498.164 176.29 493.934 172.6C489.703 169 484.124 167.2 477.194 167.2C470.354 167.2 464.953 168.91 460.904 172.24C456.854 175.57 454.784 180.07 454.784 185.65C454.784 193.93 459.014 199.69 467.564 202.84L478.904 207.25C484.664 209.5 486.553 211.48 486.553 215.35C486.553 219.76 483.493 222.28 478.094 222.28C471.703 222.28 467.833 218.23 467.833 211.39H453.254C453.254 225.52 462.523 233.8 478.004 233.8Z"/>
</mask>
<path d="M19.0703 66V24.87L33.3803 66H44.1803L58.1303 25.14V66H72.0803V2.99995H55.5203L38.7803 47.73L22.0403 2.99995H5.12031V66H19.0703Z" fill="black"/>
<path d="M124.63 66V54.3H100.69V40.44H124.63V29.01H100.69V14.6999H124.63V2.99995H86.1098V66H124.63Z" fill="black"/>
<path d="M151.87 66V25.23L173.74 66H188.68V2.99995H174.73V43.77L152.86 2.99995H137.92V66H151.87Z" fill="black"/>
<path d="M228.837 66V40.9799V15.9599H246.207V2.99995H197.067V15.9599H214.347V66H228.837Z" fill="black"/>
<path d="M306.096 58.08C312.216 51.69 315.276 43.77 315.276 34.5C315.276 25.23 312.216 17.31 306.096 10.83C299.977 4.43995 291.786 1.19995 281.616 1.19995C271.446 1.19995 263.256 4.43995 257.136 10.83C251.016 17.31 247.956 25.23 247.956 34.5C247.956 43.77 251.016 51.69 257.136 58.08C263.256 64.56 271.446 67.8 281.616 67.8C291.786 67.8 299.977 64.56 306.096 58.08ZM281.616 54.75C275.766 54.75 271.266 52.77 268.026 48.9C264.697 45.03 263.076 40.26 263.166 34.5C263.076 28.7399 264.697 23.88 268.026 20.01C271.266 16.14 275.766 14.2499 281.616 14.2499C287.376 14.2499 291.876 16.14 295.206 20.01C298.446 23.88 300.066 28.7399 300.066 34.5C300.066 40.26 298.446 45.03 295.206 48.9C291.876 52.77 287.376 54.75 281.616 54.75Z" fill="black"/>
<path d="M374.927 25.77C374.927 19.1999 372.767 13.71 368.537 9.38995C364.307 5.15995 358.907 2.99995 352.337 2.99995H325.517V66H340.097V48.54H347.747L357.647 66H374.207L363.137 46.02C370.427 42.4199 374.927 34.86 374.927 25.77ZM350.087 14.88C355.937 14.88 360.167 19.38 360.167 25.77C360.167 32.16 355.937 36.66 350.087 36.66H340.097V14.88H350.087Z" fill="black"/>
<path d="M25.8203 150.8C32.7503 150.8 38.4203 149 42.6503 145.49C46.8803 141.98 48.9503 137.21 48.9503 131.36C48.9503 122.81 44.7203 116.96 36.2603 113.63L25.8203 109.49C19.6103 106.97 17.1803 104.81 17.1803 101.3C17.1803 97.43 20.0603 95.09 24.7403 95.09C30.4103 95.09 33.4703 98.33 33.4703 104.18H48.0503C48.0503 98.15 45.9803 93.29 41.7503 89.6C37.5203 86 31.9403 84.2 25.0103 84.2C18.1703 84.2 12.7703 85.91 8.72031 89.24C4.67031 92.57 2.60031 97.0699 2.60031 102.65C2.60031 110.93 6.83031 116.69 15.3803 119.84L26.7203 124.25C32.4803 126.5 34.3703 128.48 34.3703 132.35C34.3703 136.76 31.3103 139.28 25.9103 139.28C19.5203 139.28 15.6503 135.23 15.6503 128.39H1.07031C1.07031 142.52 10.3403 150.8 25.8203 150.8Z" fill="black"/>
<path d="M97.7352 149V137.3H73.7952V123.44H97.7352V112.01H73.7952V97.7H97.7352V85.9999H59.2152V149H97.7352Z" fill="black"/>
<path d="M160.435 108.77C160.435 102.2 158.275 96.71 154.045 92.39C149.815 88.16 144.415 85.9999 137.845 85.9999H111.025V149H125.605V131.54H133.255L143.155 149H159.715L148.645 129.02C155.935 125.42 160.435 117.86 160.435 108.77ZM135.595 97.88C141.445 97.88 145.675 102.38 145.675 108.77C145.675 115.16 141.445 119.66 135.595 119.66H125.605V97.88H135.595Z" fill="black"/>
<path d="M190.247 149L222.5 85.9999H206.84L184.757 131.54V85.9999H169.097V149H190.247Z" fill="black"/>
<path d="M241.705 149V85.9999H227.125V149H241.705Z" fill="black"/>
<path d="M285.882 150.8C294.972 150.8 302.442 148.55 308.202 144.05C313.872 139.64 317.202 133.61 318.012 126.14H302.532C300.822 133.34 294.882 137.75 285.972 137.75C274.182 137.75 267.252 130.01 267.252 117.5C267.252 104.99 274.182 97.2499 285.972 97.2499C294.882 97.2499 300.822 101.66 302.532 108.86H318.012C317.202 101.39 313.872 95.36 308.202 90.86C302.442 86.45 294.972 84.2 285.882 84.2C275.712 84.2 267.522 87.2599 261.312 93.4699C255.102 99.6799 252.042 107.69 252.042 117.5C252.042 127.31 255.102 135.23 261.312 141.44C267.522 147.65 275.712 150.8 285.882 150.8Z" fill="black"/>
<path d="M366.54 149V137.3H342.6V123.44H366.54V112.01H342.6V97.7H366.54V85.9999H328.02V149H366.54Z" fill="black"/>
<path d="M418.094 149V127.22H442.034V115.25H418.094V98.24H442.034V85.9999H403.514V149H418.094Z" fill="black"/>
<path d="M508.72 141.08C514.84 134.69 517.9 126.77 517.9 117.5C517.9 108.23 514.84 100.31 508.72 93.8299C502.6 87.4399 494.41 84.2 484.24 84.2C474.07 84.2 465.88 87.4399 459.76 93.8299C453.64 100.31 450.58 108.23 450.58 117.5C450.58 126.77 453.64 134.69 459.76 141.08C465.88 147.56 474.07 150.8 484.24 150.8C494.41 150.8 502.6 147.56 508.72 141.08ZM484.24 137.75C478.39 137.75 473.89 135.77 470.65 131.9C467.32 128.03 465.7 123.26 465.79 117.5C465.7 111.74 467.32 106.88 470.65 103.01C473.89 99.14 478.39 97.2499 484.24 97.2499C490 97.2499 494.5 99.14 497.83 103.01C501.07 106.88 502.69 111.74 502.69 117.5C502.69 123.26 501.07 128.03 497.83 131.9C494.5 135.77 490 137.75 484.24 137.75Z" fill="black"/>
<path d="M577.55 108.77C577.55 102.2 575.39 96.71 571.16 92.39C566.93 88.16 561.53 85.9999 554.96 85.9999H528.14V149H542.72V131.54H550.37L560.27 149H576.83L565.76 129.02C573.05 125.42 577.55 117.86 577.55 108.77ZM552.71 97.88C558.56 97.88 562.79 102.38 562.79 108.77C562.79 115.16 558.56 119.66 552.71 119.66H542.72V97.88H552.71Z" fill="black"/>
<path d="M28.8803 232C38.6903 232 46.5203 228.94 52.3703 222.91C58.1303 216.88 61.0103 209.41 61.0103 200.5C61.0103 191.59 58.1303 184.12 52.2803 178.09C46.4303 172.06 38.6903 169 28.8803 169H5.12031V232H28.8803ZM19.7003 181.24H27.5303C33.3803 181.24 37.9703 183.13 41.2103 186.82C44.3603 190.6 45.9803 195.19 45.9803 200.5C45.9803 205.81 44.3603 210.4 41.2103 214.09C37.9703 217.87 33.3803 219.76 27.5303 219.76H19.7003V181.24Z" fill="black"/>
<path d="M109.6 232V220.3H85.6605V206.44H109.6V195.01H85.6605V180.7H109.6V169H71.0805V232H109.6Z" fill="black"/>
<path d="M142.272 233.8C149.202 233.8 154.872 232 159.102 228.49C163.332 224.98 165.402 220.21 165.402 214.36C165.402 205.81 161.172 199.96 152.712 196.63L142.272 192.49C136.062 189.97 133.632 187.81 133.632 184.3C133.632 180.43 136.512 178.09 141.192 178.09C146.862 178.09 149.922 181.33 149.922 187.18H164.502C164.502 181.15 162.432 176.29 158.202 172.6C153.972 169 148.392 167.2 141.462 167.2C134.622 167.2 129.222 168.91 125.172 172.24C121.122 175.57 119.052 180.07 119.052 185.65C119.052 193.93 123.282 199.69 131.832 202.84L143.172 207.25C148.932 209.5 150.822 211.48 150.822 215.35C150.822 219.76 147.762 222.28 142.362 222.28C135.972 222.28 132.102 218.23 132.102 211.39H117.522C117.522 225.52 126.792 233.8 142.272 233.8Z" fill="black"/>
<path d="M190.247 232V169H175.667V232H190.247Z" fill="black"/>
<path d="M239.463 198.88V209.86H250.713C248.553 217.33 243.063 221.11 234.243 221.11C228.663 221.11 224.163 219.13 220.833 215.26C217.413 211.39 215.703 206.53 215.793 200.5C215.703 187.99 222.453 179.44 234.783 179.44C242.253 179.44 247.383 183.13 248.553 188.53H264.483C263.943 182.32 260.973 177.28 255.483 173.23C249.993 169.18 243.063 167.2 234.693 167.2C224.163 167.2 215.793 170.44 209.763 176.83C203.643 183.22 200.583 191.23 200.583 200.77C200.493 210.4 203.553 218.23 209.763 224.44C215.883 230.65 223.893 233.8 233.883 233.8C251.163 233.8 262.503 225.07 265.743 209.86H271.683V198.88H239.463Z" fill="black"/>
<path d="M294.906 232V191.23L316.776 232H331.716V169H317.766V209.77L295.896 169H280.956V232H294.906Z" fill="black"/>
<path d="M384.294 232V220.3H360.354V206.44H384.294V195.01H360.354V180.7H384.294V169H345.774V232H384.294Z" fill="black"/>
<path d="M446.994 191.77C446.994 185.2 444.834 179.71 440.604 175.39C436.374 171.16 430.974 169 424.404 169H397.584V232H412.164V214.54H419.814L429.714 232H446.274L435.204 212.02C442.494 208.42 446.994 200.86 446.994 191.77ZM422.154 180.88C428.004 180.88 432.234 185.38 432.234 191.77C432.234 198.16 428.004 202.66 422.154 202.66H412.164V180.88H422.154Z" fill="black"/>
<path d="M478.004 233.8C484.934 233.8 490.603 232 494.833 228.49C499.064 224.98 501.134 220.21 501.134 214.36C501.134 205.81 496.904 199.96 488.444 196.63L478.004 192.49C471.794 189.97 469.363 187.81 469.363 184.3C469.363 180.43 472.244 178.09 476.924 178.09C482.594 178.09 485.654 181.33 485.654 187.18H500.234C500.234 181.15 498.164 176.29 493.934 172.6C489.703 169 484.124 167.2 477.194 167.2C470.354 167.2 464.953 168.91 460.904 172.24C456.854 175.57 454.784 180.07 454.784 185.65C454.784 193.93 459.014 199.69 467.564 202.84L478.904 207.25C484.664 209.5 486.553 211.48 486.553 215.35C486.553 219.76 483.493 222.28 478.094 222.28C471.703 222.28 467.833 218.23 467.833 211.39H453.254C453.254 225.52 462.523 233.8 478.004 233.8Z" fill="black"/>
<path d="M19.0703 66V24.87L33.3803 66H44.1803L58.1303 25.14V66H72.0803V2.99995H55.5203L38.7803 47.73L22.0403 2.99995H5.12031V66H19.0703Z" stroke="black" stroke-width="2" mask="url(#path-1-outside-1_7206_43)"/>
<path d="M124.63 66V54.3H100.69V40.44H124.63V29.01H100.69V14.6999H124.63V2.99995H86.1098V66H124.63Z" stroke="black" stroke-width="2" mask="url(#path-1-outside-1_7206_43)"/>
<path d="M151.87 66V25.23L173.74 66H188.68V2.99995H174.73V43.77L152.86 2.99995H137.92V66H151.87Z" stroke="black" stroke-width="2" mask="url(#path-1-outside-1_7206_43)"/>
<path d="M228.837 66V40.9799V15.9599H246.207V2.99995H197.067V15.9599H214.347V66H228.837Z" stroke="black" stroke-width="2" mask="url(#path-1-outside-1_7206_43)"/>
<path d="M306.096 58.08C312.216 51.69 315.276 43.77 315.276 34.5C315.276 25.23 312.216 17.31 306.096 10.83C299.977 4.43995 291.786 1.19995 281.616 1.19995C271.446 1.19995 263.256 4.43995 257.136 10.83C251.016 17.31 247.956 25.23 247.956 34.5C247.956 43.77 251.016 51.69 257.136 58.08C263.256 64.56 271.446 67.8 281.616 67.8C291.786 67.8 299.977 64.56 306.096 58.08ZM281.616 54.75C275.766 54.75 271.266 52.77 268.026 48.9C264.697 45.03 263.076 40.26 263.166 34.5C263.076 28.7399 264.697 23.88 268.026 20.01C271.266 16.14 275.766 14.2499 281.616 14.2499C287.376 14.2499 291.876 16.14 295.206 20.01C298.446 23.88 300.066 28.7399 300.066 34.5C300.066 40.26 298.446 45.03 295.206 48.9C291.876 52.77 287.376 54.75 281.616 54.75Z" stroke="black" stroke-width="2" mask="url(#path-1-outside-1_7206_43)"/>
<path d="M374.927 25.77C374.927 19.1999 372.767 13.71 368.537 9.38995C364.307 5.15995 358.907 2.99995 352.337 2.99995H325.517V66H340.097V48.54H347.747L357.647 66H374.207L363.137 46.02C370.427 42.4199 374.927 34.86 374.927 25.77ZM350.087 14.88C355.937 14.88 360.167 19.38 360.167 25.77C360.167 32.16 355.937 36.66 350.087 36.66H340.097V14.88H350.087Z" stroke="black" stroke-width="2" mask="url(#path-1-outside-1_7206_43)"/>
<path d="M25.8203 150.8C32.7503 150.8 38.4203 149 42.6503 145.49C46.8803 141.98 48.9503 137.21 48.9503 131.36C48.9503 122.81 44.7203 116.96 36.2603 113.63L25.8203 109.49C19.6103 106.97 17.1803 104.81 17.1803 101.3C17.1803 97.43 20.0603 95.09 24.7403 95.09C30.4103 95.09 33.4703 98.33 33.4703 104.18H48.0503C48.0503 98.15 45.9803 93.29 41.7503 89.6C37.5203 86 31.9403 84.2 25.0103 84.2C18.1703 84.2 12.7703 85.91 8.72031 89.24C4.67031 92.57 2.60031 97.0699 2.60031 102.65C2.60031 110.93 6.83031 116.69 15.3803 119.84L26.7203 124.25C32.4803 126.5 34.3703 128.48 34.3703 132.35C34.3703 136.76 31.3103 139.28 25.9103 139.28C19.5203 139.28 15.6503 135.23 15.6503 128.39H1.07031C1.07031 142.52 10.3403 150.8 25.8203 150.8Z" stroke="black" stroke-width="2" mask="url(#path-1-outside-1_7206_43)"/>
<path d="M97.7352 149V137.3H73.7952V123.44H97.7352V112.01H73.7952V97.7H97.7352V85.9999H59.2152V149H97.7352Z" stroke="black" stroke-width="2" mask="url(#path-1-outside-1_7206_43)"/>
<path d="M160.435 108.77C160.435 102.2 158.275 96.71 154.045 92.39C149.815 88.16 144.415 85.9999 137.845 85.9999H111.025V149H125.605V131.54H133.255L143.155 149H159.715L148.645 129.02C155.935 125.42 160.435 117.86 160.435 108.77ZM135.595 97.88C141.445 97.88 145.675 102.38 145.675 108.77C145.675 115.16 141.445 119.66 135.595 119.66H125.605V97.88H135.595Z" stroke="black" stroke-width="2" mask="url(#path-1-outside-1_7206_43)"/>
<path d="M190.247 149L222.5 85.9999H206.84L184.757 131.54V85.9999H169.097V149H190.247Z" stroke="black" stroke-width="2" mask="url(#path-1-outside-1_7206_43)"/>
<path d="M241.705 149V85.9999H227.125V149H241.705Z" stroke="black" stroke-width="2" mask="url(#path-1-outside-1_7206_43)"/>
<path d="M285.882 150.8C294.972 150.8 302.442 148.55 308.202 144.05C313.872 139.64 317.202 133.61 318.012 126.14H302.532C300.822 133.34 294.882 137.75 285.972 137.75C274.182 137.75 267.252 130.01 267.252 117.5C267.252 104.99 274.182 97.2499 285.972 97.2499C294.882 97.2499 300.822 101.66 302.532 108.86H318.012C317.202 101.39 313.872 95.36 308.202 90.86C302.442 86.45 294.972 84.2 285.882 84.2C275.712 84.2 267.522 87.2599 261.312 93.4699C255.102 99.6799 252.042 107.69 252.042 117.5C252.042 127.31 255.102 135.23 261.312 141.44C267.522 147.65 275.712 150.8 285.882 150.8Z" stroke="black" stroke-width="2" mask="url(#path-1-outside-1_7206_43)"/>
<path d="M366.54 149V137.3H342.6V123.44H366.54V112.01H342.6V97.7H366.54V85.9999H328.02V149H366.54Z" stroke="black" stroke-width="2" mask="url(#path-1-outside-1_7206_43)"/>
<path d="M418.094 149V127.22H442.034V115.25H418.094V98.24H442.034V85.9999H403.514V149H418.094Z" stroke="black" stroke-width="2" mask="url(#path-1-outside-1_7206_43)"/>
<path d="M508.72 141.08C514.84 134.69 517.9 126.77 517.9 117.5C517.9 108.23 514.84 100.31 508.72 93.8299C502.6 87.4399 494.41 84.2 484.24 84.2C474.07 84.2 465.88 87.4399 459.76 93.8299C453.64 100.31 450.58 108.23 450.58 117.5C450.58 126.77 453.64 134.69 459.76 141.08C465.88 147.56 474.07 150.8 484.24 150.8C494.41 150.8 502.6 147.56 508.72 141.08ZM484.24 137.75C478.39 137.75 473.89 135.77 470.65 131.9C467.32 128.03 465.7 123.26 465.79 117.5C465.7 111.74 467.32 106.88 470.65 103.01C473.89 99.14 478.39 97.2499 484.24 97.2499C490 97.2499 494.5 99.14 497.83 103.01C501.07 106.88 502.69 111.74 502.69 117.5C502.69 123.26 501.07 128.03 497.83 131.9C494.5 135.77 490 137.75 484.24 137.75Z" stroke="black" stroke-width="2" mask="url(#path-1-outside-1_7206_43)"/>
<path d="M577.55 108.77C577.55 102.2 575.39 96.71 571.16 92.39C566.93 88.16 561.53 85.9999 554.96 85.9999H528.14V149H542.72V131.54H550.37L560.27 149H576.83L565.76 129.02C573.05 125.42 577.55 117.86 577.55 108.77ZM552.71 97.88C558.56 97.88 562.79 102.38 562.79 108.77C562.79 115.16 558.56 119.66 552.71 119.66H542.72V97.88H552.71Z" stroke="black" stroke-width="2" mask="url(#path-1-outside-1_7206_43)"/>
<path d="M28.8803 232C38.6903 232 46.5203 228.94 52.3703 222.91C58.1303 216.88 61.0103 209.41 61.0103 200.5C61.0103 191.59 58.1303 184.12 52.2803 178.09C46.4303 172.06 38.6903 169 28.8803 169H5.12031V232H28.8803ZM19.7003 181.24H27.5303C33.3803 181.24 37.9703 183.13 41.2103 186.82C44.3603 190.6 45.9803 195.19 45.9803 200.5C45.9803 205.81 44.3603 210.4 41.2103 214.09C37.9703 217.87 33.3803 219.76 27.5303 219.76H19.7003V181.24Z" stroke="black" stroke-width="2" mask="url(#path-1-outside-1_7206_43)"/>
<path d="M109.6 232V220.3H85.6605V206.44H109.6V195.01H85.6605V180.7H109.6V169H71.0805V232H109.6Z" stroke="black" stroke-width="2" mask="url(#path-1-outside-1_7206_43)"/>
<path d="M142.272 233.8C149.202 233.8 154.872 232 159.102 228.49C163.332 224.98 165.402 220.21 165.402 214.36C165.402 205.81 161.172 199.96 152.712 196.63L142.272 192.49C136.062 189.97 133.632 187.81 133.632 184.3C133.632 180.43 136.512 178.09 141.192 178.09C146.862 178.09 149.922 181.33 149.922 187.18H164.502C164.502 181.15 162.432 176.29 158.202 172.6C153.972 169 148.392 167.2 141.462 167.2C134.622 167.2 129.222 168.91 125.172 172.24C121.122 175.57 119.052 180.07 119.052 185.65C119.052 193.93 123.282 199.69 131.832 202.84L143.172 207.25C148.932 209.5 150.822 211.48 150.822 215.35C150.822 219.76 147.762 222.28 142.362 222.28C135.972 222.28 132.102 218.23 132.102 211.39H117.522C117.522 225.52 126.792 233.8 142.272 233.8Z" stroke="black" stroke-width="2" mask="url(#path-1-outside-1_7206_43)"/>
<path d="M190.247 232V169H175.667V232H190.247Z" stroke="black" stroke-width="2" mask="url(#path-1-outside-1_7206_43)"/>
<path d="M239.463 198.88V209.86H250.713C248.553 217.33 243.063 221.11 234.243 221.11C228.663 221.11 224.163 219.13 220.833 215.26C217.413 211.39 215.703 206.53 215.793 200.5C215.703 187.99 222.453 179.44 234.783 179.44C242.253 179.44 247.383 183.13 248.553 188.53H264.483C263.943 182.32 260.973 177.28 255.483 173.23C249.993 169.18 243.063 167.2 234.693 167.2C224.163 167.2 215.793 170.44 209.763 176.83C203.643 183.22 200.583 191.23 200.583 200.77C200.493 210.4 203.553 218.23 209.763 224.44C215.883 230.65 223.893 233.8 233.883 233.8C251.163 233.8 262.503 225.07 265.743 209.86H271.683V198.88H239.463Z" stroke="black" stroke-width="2" mask="url(#path-1-outside-1_7206_43)"/>
<path d="M294.906 232V191.23L316.776 232H331.716V169H317.766V209.77L295.896 169H280.956V232H294.906Z" stroke="black" stroke-width="2" mask="url(#path-1-outside-1_7206_43)"/>
<path d="M384.294 232V220.3H360.354V206.44H384.294V195.01H360.354V180.7H384.294V169H345.774V232H384.294Z" stroke="black" stroke-width="2" mask="url(#path-1-outside-1_7206_43)"/>
<path d="M446.994 191.77C446.994 185.2 444.834 179.71 440.604 175.39C436.374 171.16 430.974 169 424.404 169H397.584V232H412.164V214.54H419.814L429.714 232H446.274L435.204 212.02C442.494 208.42 446.994 200.86 446.994 191.77ZM422.154 180.88C428.004 180.88 432.234 185.38 432.234 191.77C432.234 198.16 428.004 202.66 422.154 202.66H412.164V180.88H422.154Z" stroke="black" stroke-width="2" mask="url(#path-1-outside-1_7206_43)"/>
<path d="M478.004 233.8C484.934 233.8 490.603 232 494.833 228.49C499.064 224.98 501.134 220.21 501.134 214.36C501.134 205.81 496.904 199.96 488.444 196.63L478.004 192.49C471.794 189.97 469.363 187.81 469.363 184.3C469.363 180.43 472.244 178.09 476.924 178.09C482.594 178.09 485.654 181.33 485.654 187.18H500.234C500.234 181.15 498.164 176.29 493.934 172.6C489.703 169 484.124 167.2 477.194 167.2C470.354 167.2 464.953 168.91 460.904 172.24C456.854 175.57 454.784 180.07 454.784 185.65C454.784 193.93 459.014 199.69 467.564 202.84L478.904 207.25C484.664 209.5 486.553 211.48 486.553 215.35C486.553 219.76 483.493 222.28 478.094 222.28C471.703 222.28 467.833 218.23 467.833 211.39H453.254C453.254 225.52 462.523 233.8 478.004 233.8Z" stroke="black" stroke-width="2" mask="url(#path-1-outside-1_7206_43)"/>
<line x1="290.5" y1="27" x2="290.5" y2="32" stroke="black" stroke-width="4" stroke-linecap="round"/>
<line x1="273.5" y1="27" x2="273.5" y2="32" stroke="black" stroke-width="4" stroke-linecap="round"/>
<path d="M270 41C271.333 42.3333 275.6 45 282 45C288.4 45 292.333 42.3333 293.5 41" stroke="black"/>
</svg>
