<svg width="78" height="79" viewBox="0 0 78 79" fill="none" xmlns="http://www.w3.org/2000/svg">
<path d="M38.9816 78.5H39.0185C60.5488 78.5 78 61.0464 78 39.52V39.5015C78.0031 17.9597 60.5396 0.5 39 0.5C17.4604 0.5 0 17.9597 0 39.4985V39.5169C0 61.0464 17.4512 78.5 38.9816 78.5Z" fill="black"/>
<path d="M39.052 23.1638C44.3915 23.1638 45.0248 23.1853 47.1336 23.2806C49.0825 23.3697 50.143 23.6956 50.847 23.9691C51.7815 24.3319 52.4455 24.7653 53.1463 25.4661C53.8472 26.167 54.2806 26.8309 54.6434 27.7654C54.9169 28.4693 55.2428 29.5298 55.3319 31.4787C55.4272 33.5873 55.4487 34.2206 55.4487 39.5599C55.4487 44.8993 55.4272 45.5325 55.3319 47.6412C55.2428 49.59 54.9169 50.6505 54.6434 51.3544C54.2806 52.2889 53.8472 52.9529 53.1463 53.6537C52.4455 54.3546 51.7815 54.788 50.847 55.1507C50.143 55.4243 49.0825 55.7501 47.1336 55.8393C45.0248 55.9345 44.3915 55.9561 39.052 55.9561C33.7124 55.9561 33.0792 55.9345 30.9704 55.8393C29.0215 55.7501 27.9609 55.4243 27.257 55.1507C26.3225 54.788 25.6585 54.3546 24.9576 53.6537C24.2568 52.9529 23.8233 52.2889 23.4606 51.3544C23.187 50.6505 22.8612 49.59 22.772 47.6412C22.6767 45.5325 22.6552 44.8993 22.6552 39.5599C22.6552 34.2206 22.6767 33.5873 22.772 31.4787C22.8612 29.5298 23.187 28.4693 23.4606 27.7654C23.8233 26.8309 24.2568 26.167 24.9576 25.4661C25.6585 24.7653 26.3225 24.3319 27.257 23.9691C27.9609 23.6956 29.0215 23.3697 30.9704 23.2806C33.0792 23.1822 33.7124 23.1638 39.052 23.1638ZM39.052 19.5581C33.6202 19.5581 32.9378 19.5796 30.8075 19.678C28.6772 19.7764 27.2262 20.1145 25.9536 20.6063C24.6379 21.1166 23.5221 21.802 22.4123 22.9117C21.2995 24.0245 20.6171 25.1403 20.1068 26.4528C19.6119 27.7254 19.2738 29.1794 19.1785 31.3065C19.0801 33.4398 19.0586 34.1191 19.0586 39.5507C19.0586 44.9823 19.0801 45.6647 19.1785 47.7949C19.2769 49.9251 19.615 51.376 20.1068 52.6486C20.6171 53.9642 21.3026 55.08 22.4123 56.1897C23.5251 57.3024 24.641 57.9848 25.9536 58.4951C27.2262 58.99 28.6802 59.3281 30.8075 59.4234C32.9408 59.5218 33.6233 59.5433 39.052 59.5433C44.4807 59.5433 45.1662 59.5218 47.2965 59.4234C49.4268 59.325 50.8777 58.9869 52.1503 58.4951C53.466 57.9848 54.5819 57.2994 55.6916 56.1897C56.8044 55.0769 57.4868 53.9611 57.9971 52.6486C58.492 51.376 58.8302 49.922 58.9255 47.7949C59.0238 45.6616 59.0454 44.9823 59.0454 39.5507C59.0454 34.1191 59.0238 33.4367 58.9255 31.3065C58.8271 29.1763 58.489 27.7254 57.9971 26.4528C57.4868 25.1372 56.8013 24.0214 55.6916 22.9117C54.5788 21.799 53.4629 21.1166 52.1503 20.6063C50.8777 20.1114 49.4237 19.7733 47.2965 19.678C45.1631 19.5827 44.4838 19.5581 39.052 19.5581Z" fill="white"/>
<path d="M39.0515 29.29C33.38 29.29 28.7812 33.8886 28.7812 39.5599C28.7812 45.2312 33.38 49.8298 39.0515 49.8298C44.7231 49.8298 49.3218 45.2312 49.3218 39.5599C49.3218 33.8886 44.7231 29.29 39.0515 29.29ZM39.0515 46.2241C35.3689 46.2241 32.384 43.2394 32.384 39.5568C32.384 35.8743 35.3689 32.8896 39.0515 32.8896C42.7342 32.8896 45.7191 35.8743 45.7191 39.5568C45.7191 43.2394 42.7342 46.2241 39.0515 46.2241Z" fill="white"/>
<path d="M49.7289 31.2848C51.0549 31.2848 52.1298 30.21 52.1298 28.8841C52.1298 27.5582 51.0549 26.4834 49.7289 26.4834C48.403 26.4834 47.3281 27.5582 47.3281 28.8841C47.3281 30.21 48.403 31.2848 49.7289 31.2848Z" fill="white"/>
</svg>
