<svg width="211" height="25" viewBox="0 0 211 25" fill="none" xmlns="http://www.w3.org/2000/svg">
<path d="M40.9739 22.2597V24.4941H29.6429V22.2597H33.1872V13.6172C33.1872 12.4649 32.8292 11.5655 32.1132 10.9191C31.3972 10.2726 30.4127 9.94941 29.1596 9.94941C26.9758 9.94941 24.6846 10.5818 22.2859 11.8465C22.3933 12.2681 22.447 12.6897 22.447 13.1113V22.2597H26.3135V24.4941H14.9826V22.2597H18.5268V13.6172C18.5268 12.4649 18.1688 11.5655 17.4528 10.9191C16.7368 10.2726 15.7523 9.94941 14.4993 9.94941C12.6734 9.94941 10.5075 10.5115 8.00145 11.6358V22.2597H11.8142V24.4941H0V22.2597H4.08128V10.1602H0V7.9258H8.00145V9.52782C10.7223 8.17875 13.2283 7.50422 15.5196 7.50422C16.9158 7.50422 18.133 7.74311 19.1713 8.22091C20.2095 8.6706 20.9971 9.30298 21.5341 10.118C23.1093 9.27487 24.5772 8.62844 25.9376 8.17875C27.298 7.72906 28.7121 7.50422 30.18 7.50422C32.1848 7.50422 33.8316 7.99607 35.1204 8.97976C36.4451 9.93536 37.1074 11.2844 37.1074 13.027V22.2597H40.9739Z" fill="white"/>
<path d="M61.5472 16.8634H44.1481C44.3987 18.6341 45.2042 20.0393 46.5646 21.0793C47.9251 22.0911 49.6614 22.597 51.7736 22.597C54.7093 22.597 57.3764 21.7116 59.7751 19.941L61.1713 21.8381C60.1331 22.7937 58.8264 23.5666 57.2511 24.1568C55.6759 24.7189 53.9038 25 51.9347 25C49.7151 25 47.6924 24.6346 45.8665 23.9039C44.0407 23.1731 42.6087 22.1473 41.5704 20.8263C40.5322 19.4772 40.0131 17.9455 40.0131 16.231C40.0131 14.4885 40.4964 12.9567 41.463 11.6358C42.4655 10.2867 43.808 9.26082 45.4906 8.55818C47.209 7.82743 49.1065 7.46206 51.1829 7.46206C54.405 7.46206 56.9289 8.23496 58.7548 9.78078C60.6164 11.3266 61.5472 13.4205 61.5472 16.0624V16.8634ZM57.627 14.9241C57.627 13.3221 57.0184 12.0573 55.8012 11.1298C54.6198 10.2024 53.0804 9.73862 51.1829 9.73862C49.3213 9.73862 47.7461 10.2024 46.4572 11.1298C45.1684 12.0573 44.3987 13.3221 44.1481 14.9241H57.627Z" fill="white"/>
<path d="M88.6629 22.2597V24.4941H77.3319V22.2597H80.8225V13.6172C80.8225 12.4649 80.4645 11.5655 79.7485 10.9191C79.0325 10.2726 78.048 9.94941 76.7949 9.94941C75.7567 9.94941 74.7006 10.104 73.6266 10.4132C72.5884 10.6942 71.4427 11.1298 70.1897 11.7201V22.2597H74.0025V24.4941H62.1883V22.2597H66.2695V10.1602H62.1883V7.9258H70.1897V9.56998C72.9822 8.19281 75.524 7.50422 77.8153 7.50422C79.8201 7.50422 81.4669 7.99607 82.7557 8.97976C84.0804 9.93536 84.7427 11.2844 84.7427 13.027V22.2597H88.6629Z" fill="white"/>
<path d="M97.0188 24.4941C92.9375 24.4941 90.8969 22.864 90.8969 19.6037V10.1602H87.4063V7.9258H90.8969L91.6758 5.17161C91.6758 5.17161 89.9538 3.09427 90.8969 2.27656C91.9385 1.37341 93.8292 1.37341 94.8708 2.27656C95.8138 3.09427 93.9134 5.17161 93.9134 5.17161L94.8708 7.9258L106.22 4.2933V4.56777L94.8708 10.1602V19.4351C94.8708 20.475 95.0856 21.2057 95.5152 21.6273C95.9448 22.0489 96.6787 22.2597 97.7169 22.2597H100.939V24.4941H97.0188Z" fill="white"/>
<path d="M112.795 25C110.54 25 108.553 24.6346 106.834 23.9039C105.116 23.1731 103.773 22.1473 102.807 20.8263C101.876 19.4772 101.411 17.9314 101.411 16.1889C101.411 14.4463 101.876 12.9146 102.807 11.5936C103.773 10.2726 105.116 9.26082 106.834 8.55818C108.553 7.82743 110.54 7.46206 112.795 7.46206C115.051 7.46206 117.038 7.82743 118.756 8.55818C120.51 9.26082 121.871 10.2726 122.837 11.5936C123.804 12.9146 124.287 14.4323 124.287 16.1467C124.287 17.8893 123.804 19.4351 122.837 20.7841C121.871 22.1332 120.51 23.1731 118.756 23.9039C117.038 24.6346 115.051 25 112.795 25ZM112.795 22.5548C115.015 22.5548 116.805 21.9786 118.165 20.8263C119.526 19.6459 120.206 18.086 120.206 16.1467C120.206 14.2636 119.526 12.76 118.165 11.6358C116.805 10.4834 115.015 9.90725 112.795 9.90725C110.576 9.90725 108.803 10.4834 107.479 11.6358C106.154 12.7881 105.492 14.3058 105.492 16.1889C105.492 18.1001 106.154 19.6459 107.479 20.8263C108.839 21.9786 110.611 22.5548 112.795 22.5548Z" fill="white"/>
<path d="M138.496 7.71501C139.856 7.71501 141.288 7.99606 142.792 8.55818L141.825 11.3828C140.608 10.7645 139.373 10.4553 138.12 10.4553C136.688 10.4553 135.488 10.9191 134.522 11.8465C133.591 12.7459 133.126 13.9966 133.126 15.5986L133.072 22.2597H136.831V24.4941H125.07V22.2597H129.152V10.1602H125.07V7.9258H133.072V10.9612C134.217 8.79708 136.025 7.71501 138.496 7.71501Z" fill="white"/>
<path d="M148.202 4.30017C147.378 4.30017 146.68 4.10343 146.107 3.70995C145.57 3.28836 145.302 2.76841 145.302 2.15008C145.302 1.53176 145.57 1.02586 146.107 0.632377C146.68 0.210792 147.378 0 148.202 0C149.025 0 149.705 0.210792 150.242 0.632377C150.815 1.02586 151.102 1.53176 151.102 2.15008C151.102 2.76841 150.815 3.28836 150.242 3.70995C149.705 4.10343 149.025 4.30017 148.202 4.30017ZM142.671 22.2597H146.752V10.1602H142.724V7.9258H150.672V22.2597H154.485V24.4941H142.671V22.2597Z" fill="white"/>
<path d="M166.761 9.90725C164.47 9.90725 162.59 10.4834 161.122 11.6358C159.654 12.7881 158.921 14.2496 158.921 16.0202C158.921 17.9314 159.637 19.4913 161.069 20.6998C162.501 21.8803 164.362 22.4705 166.653 22.4705C168.372 22.4705 169.822 22.2175 171.003 21.7116C172.185 21.1776 173.33 20.4188 174.44 19.4351L176.105 21.3322C174.995 22.4564 173.617 23.3418 171.97 23.9882C170.323 24.6065 168.426 24.9157 166.278 24.9157C164.058 24.9157 162.071 24.5363 160.317 23.7774C158.598 23.0185 157.238 21.9786 156.235 20.6577C155.269 19.3086 154.786 17.7909 154.786 16.1046C154.786 14.4182 155.251 12.9286 156.182 11.6358C157.148 10.3148 158.473 9.28893 160.156 8.55818C161.838 7.82743 163.736 7.46206 165.848 7.46206C167.423 7.46206 168.819 7.6869 170.037 8.13659C171.254 8.58628 172.185 9.19056 172.829 9.94941V7.84149H176.159V13.7858H173.151C172.829 12.5773 172.095 11.6358 170.95 10.9612C169.804 10.2586 168.408 9.90725 166.761 9.90725Z" fill="white"/>
<path d="M199.827 22.2597V24.4941H193.007L192.792 23.0186C191.647 23.6931 190.501 24.1849 189.356 24.4941C188.21 24.8033 186.921 24.9578 185.489 24.9578C183.341 24.9578 181.587 24.4941 180.226 23.5666C178.902 22.611 178.239 21.4306 178.239 20.0253C178.239 18.2265 179.009 16.9196 180.549 16.1046C182.124 15.2614 184.182 14.8398 186.724 14.8398C188.55 14.8398 190.501 15.0225 192.578 15.3879V13.6594C192.578 12.3946 192.13 11.439 191.235 10.7926C190.376 10.1461 189.159 9.82293 187.583 9.82293C186.545 9.82293 185.346 9.96346 183.985 10.2445C182.661 10.4975 181.444 10.8628 180.334 11.3406L179.152 9.31703C180.334 8.72681 181.694 8.27712 183.234 7.96796C184.809 7.6588 186.277 7.50422 187.637 7.50422C190.394 7.50422 192.56 8.03822 194.135 9.10624C195.71 10.1461 196.498 11.5655 196.498 13.3643V22.2597H199.827ZM181.999 19.8567C181.999 20.7279 182.357 21.4446 183.073 22.0067C183.824 22.5408 184.827 22.8078 186.08 22.8078C188.192 22.8078 190.358 22.2035 192.578 20.9949V17.2007C190.68 16.8634 188.819 16.6948 186.993 16.6948C185.561 16.6948 184.361 16.9477 183.395 17.4536C182.464 17.9314 181.999 18.7324 181.999 19.8567Z" fill="white"/>
<path d="M199.669 22.2597H203.589V2.52951H199.776V0.337269H207.563V22.2597H211V24.4941H199.669V22.2597Z" fill="white"/>
</svg>
