<svg width="79" height="79" viewBox="0 0 79 79" fill="none" xmlns="http://www.w3.org/2000/svg">
<path d="M39.191 78.5H39.2279C60.7591 78.5 78.2109 61.0464 78.2109 39.52V39.5015C78.214 17.9597 60.7529 0.5 39.2125 0.5C17.672 0.5 0.210938 17.9597 0.210938 39.4985V39.5169C0.207864 61.0464 17.6628 78.5 39.191 78.5Z" fill="black"/>
<path d="M54.6019 40.2301C53.1601 38.6777 51.0574 37.648 48.7979 37.1469V36.9379C50.4118 36.2432 51.8198 35.1581 52.7666 33.6857C53.7135 32.2103 54.2115 30.5288 54.2115 28.6353C54.2115 27.0031 53.8825 25.5645 53.197 24.3134C52.5115 23.0654 51.4816 22.0664 50.0921 21.3195C48.8071 20.6248 47.4361 20.1483 45.9697 19.9331C44.5034 19.7149 42.3484 19.5889 39.5048 19.5889H25.5605V58.6427H41.3278C44.0176 58.6427 46.2341 58.2738 47.9802 57.7881C49.7232 57.3024 51.3249 56.4233 52.782 55.2767C54.0147 54.3238 54.9954 53.0851 55.7239 51.625C56.4525 50.1679 56.7907 48.4589 56.7907 46.5346C56.7876 43.8941 56.0437 41.7854 54.6019 40.2301ZM35.241 26.6865H36.1694C37.9032 26.6865 39.2097 26.7234 40.0889 26.748C40.965 26.7756 41.7243 26.9385 42.3668 27.2152C43.0431 27.5103 43.5411 27.9929 43.8639 28.6538C44.1836 29.3147 44.3466 29.9571 44.3466 30.5842C44.3466 31.4356 44.199 32.1826 43.9039 32.825C43.6088 33.4675 43.0708 33.9716 42.29 34.3343C41.5768 34.6632 40.8882 34.9184 40.2211 34.9553C39.554 34.9891 38.3858 35.0813 36.7196 35.0813H35.2441V26.6865H35.241ZM46.1788 48.8462C45.7699 49.5839 45.1243 50.1434 44.239 50.5245C43.2337 50.9579 42.2439 51.3207 41.2724 51.3575C40.301 51.3913 38.5488 51.5389 36.0126 51.5389H35.241V41.5334H37.2884C39.0222 41.5334 40.4086 41.5641 41.4415 41.5918C42.4744 41.6164 43.286 41.7516 43.8762 41.9791C44.8477 42.3264 45.5762 42.8429 46.0619 43.5191C46.5477 44.1954 46.7905 45.136 46.7905 46.3317C46.7905 47.2693 46.5876 48.1084 46.1788 48.8462Z" fill="white"/>
</svg>
